<svg width="128" height="43" viewBox="0 0 128 43" fill="none" xmlns="http://www.w3.org/2000/svg">
<path d="M126.668 37.8278C126.668 40.0952 125.047 41.9318 123.041 41.9318H4.33958C2.33487 41.9318 0.707642 40.0952 0.707642 37.8278V5.09961C0.707642 2.83329 2.33487 0.990234 4.33958 0.990234H123.04C125.047 0.990234 126.667 2.83329 126.667 5.09961L126.668 37.8278Z" fill="black"/>
<path d="M122.658 1.03977C124.843 1.03977 126.62 3.04347 126.62 5.50589V37.4162C126.62 39.8786 124.843 41.8823 122.658 41.8823H4.71763C2.53337 41.8823 0.756 39.8786 0.756 37.4162V5.50589C0.756 3.04347 2.53337 1.03977 4.71763 1.03977H122.658ZM122.658 0.187496H4.71763C2.12411 0.187496 0 2.5821 0 5.50589V37.4162C0 40.34 2.12411 42.7346 4.71763 42.7346H122.658C125.252 42.7346 127.376 40.34 127.376 37.4162V5.50589C127.376 2.5821 125.252 0.187496 122.658 0.187496Z" fill="#A6A6A6"/>
<path d="M28.4266 21.2312C28.3992 17.803 30.9166 16.1351 31.0317 16.0575C29.606 13.7142 27.3963 13.394 26.6197 13.3685C24.7638 13.1483 22.9636 14.6205 22.0182 14.6205C21.0539 14.6205 19.598 13.3898 18.029 13.4259C16.0098 13.461 14.1209 14.7789 13.0849 16.8255C10.9469 20.9983 12.5414 27.1304 14.5898 30.5033C15.6145 32.1552 16.8118 33.9996 18.379 33.9347C19.9122 33.8635 20.485 32.8327 22.3352 32.8327C24.1685 32.8327 24.7063 33.9347 26.3046 33.8932C27.9501 33.8635 28.9861 32.2339 29.9749 30.5671C31.159 28.6738 31.6346 26.8091 31.6534 26.7134C31.6148 26.6985 28.4577 25.3402 28.4266 21.2312Z" fill="white"/>
<path d="M25.4073 11.1497C26.232 9.98707 26.7962 8.40538 26.6396 6.80029C25.446 6.85986 23.9533 7.73101 23.0938 8.86808C22.3333 9.87007 21.654 11.5124 21.8295 13.0568C23.1702 13.1696 24.5468 12.2942 25.4073 11.1497Z" fill="white"/>
<path d="M50.6155 33.6977H48.4727L47.299 29.5397H43.2191L42.101 33.6977H40.0149L44.057 19.5422H46.5536L50.6155 33.6977ZM46.9451 27.7953L45.8837 24.099C45.7714 23.7214 45.561 22.8322 45.2506 21.4324H45.2128C45.0892 22.0344 44.8901 22.9237 44.6165 24.099L43.5739 27.7953H46.9451V27.7953Z" fill="white"/>
<path d="M61.0103 28.4686C61.0103 30.2045 60.5942 31.5766 59.762 32.5839C59.0166 33.4806 58.091 33.9284 56.9861 33.9284C55.7935 33.9284 54.9368 33.4455 54.415 32.4797H54.3773V37.8566H52.3657V26.8507C52.3657 25.7594 52.3402 24.6393 52.2911 23.4906H54.0602L54.1725 25.1084H54.2103C54.8811 23.8894 55.8992 23.281 57.2654 23.281C58.3335 23.281 59.2251 23.7565 59.9384 24.7085C60.6536 25.6615 61.0103 26.9145 61.0103 28.4686ZM58.9609 28.5515C58.9609 27.5581 58.7628 26.739 58.3646 26.0944C57.9296 25.4222 57.3456 25.0861 56.6134 25.0861C56.1171 25.0861 55.6661 25.2733 55.2632 25.6424C54.8594 26.0147 54.5952 26.5008 54.4716 27.1028C54.4093 27.3836 54.3782 27.6134 54.3782 27.7942V29.4961C54.3782 30.2385 54.5801 30.865 54.984 31.3767C55.3878 31.8883 55.9124 32.1436 56.5578 32.1436C57.3154 32.1436 57.9051 31.8138 58.3269 31.1565C58.7496 30.4981 58.9609 29.6301 58.9609 28.5515Z" fill="white"/>
<path d="M71.4239 28.4686C71.4239 30.2045 71.0079 31.5766 70.1747 32.5839C69.4303 33.4806 68.5047 33.9284 67.3998 33.9284C66.2072 33.9284 65.3505 33.4455 64.8297 32.4797H64.7919V37.8566H62.7804V26.8507C62.7804 25.7594 62.7549 24.6393 62.7058 23.4906H64.4749L64.5872 25.1084H64.6249C65.2948 23.8894 66.3129 23.281 67.6801 23.281C68.7472 23.281 69.6388 23.7565 70.354 24.7085C71.0664 25.6615 71.4239 26.9145 71.4239 28.4686ZM69.3746 28.5515C69.3746 27.5581 69.1755 26.739 68.7774 26.0944C68.3424 25.4222 67.7603 25.0861 67.0271 25.0861C66.5299 25.0861 66.0798 25.2733 65.676 25.6424C65.2722 26.0147 65.0089 26.5008 64.8853 27.1028C64.824 27.3836 64.7919 27.6134 64.7919 27.7942V29.4961C64.7919 30.2385 64.9938 30.865 65.3958 31.3767C65.7996 31.8872 66.3242 32.1436 66.9715 32.1436C67.7291 32.1436 68.3188 31.8138 68.7406 31.1565C69.1633 30.4981 69.3746 29.6301 69.3746 28.5515Z" fill="white"/>
<path d="M83.0671 29.7279C83.0671 30.932 82.6963 31.9116 81.9519 32.6679C81.1338 33.4944 79.995 33.9071 78.5316 33.9071C77.1804 33.9071 76.0972 33.6135 75.2773 33.0253L75.7434 31.1352C76.6266 31.7372 77.5956 32.0393 78.6514 32.0393C79.409 32.0393 79.9987 31.8457 80.4224 31.4606C80.8441 31.0756 81.0546 30.5586 81.0546 29.9141C81.0546 29.3397 80.8809 28.8557 80.5328 28.4632C80.1865 28.0707 79.6081 27.7059 78.8005 27.3687C76.602 26.4443 75.5038 25.0903 75.5038 23.3097C75.5038 22.146 75.8887 21.1919 76.6596 20.4495C77.4276 19.7059 78.4523 19.3347 79.7336 19.3347C80.8762 19.3347 81.8254 19.5592 82.5831 20.007L82.0802 21.8556C81.3725 21.4217 80.5724 21.2047 79.677 21.2047C78.9694 21.2047 78.4164 21.4014 78.0202 21.7929C77.6852 22.1428 77.5173 22.5694 77.5173 23.0746C77.5173 23.6341 77.7088 24.0968 78.0938 24.4606C78.4287 24.7967 79.0373 25.1605 79.9204 25.553C81.0008 26.0433 81.7943 26.6167 82.3047 27.274C82.8133 27.9292 83.0671 28.7493 83.0671 29.7279Z" fill="white"/>
<path d="M89.718 25.1924H87.5007V30.1481C87.5007 31.4085 87.8913 32.0382 88.6745 32.0382C89.034 32.0382 89.3321 32.0031 89.568 31.9329L89.6237 33.655C89.2274 33.822 88.7056 33.9061 88.0593 33.9061C87.2648 33.9061 86.644 33.6327 86.1958 33.087C85.7495 32.5403 85.5249 31.6234 85.5249 30.3353V25.1903H84.204V23.4884H85.5249V21.6195L87.5007 20.9473V23.4884H89.718V25.1924Z" fill="white"/>
<path d="M99.7222 28.51C99.7222 30.0789 99.324 31.367 98.5296 32.3743C97.6964 33.4114 96.5906 33.9283 95.2121 33.9283C93.8837 33.9283 92.826 33.4316 92.0372 32.4381C91.2484 31.4446 90.854 30.1906 90.854 28.6791C90.854 27.0974 91.2597 25.8018 92.074 24.7945C92.8863 23.7862 93.9827 23.282 95.3612 23.282C96.6897 23.282 97.7587 23.7787 98.5654 24.7733C99.3372 25.738 99.7222 26.9836 99.7222 28.51ZM97.6351 28.5834C97.6351 27.642 97.4568 26.8347 97.0954 26.1614C96.6736 25.3466 96.0707 24.9403 95.2895 24.9403C94.4809 24.9403 93.8667 25.3476 93.4449 26.1614C93.0835 26.8357 92.9052 27.6558 92.9052 28.6259C92.9052 29.5673 93.0835 30.3746 93.4449 31.0468C93.8799 31.8616 94.4875 32.2679 95.2716 32.2679C96.0396 32.2679 96.6425 31.8531 97.0775 31.0256C97.4483 30.3395 97.6351 29.5236 97.6351 28.5834Z" fill="white"/>
<path d="M106.261 25.4849C106.062 25.4435 105.849 25.4222 105.627 25.4222C104.919 25.4222 104.372 25.7232 103.987 26.3263C103.652 26.8582 103.484 27.5304 103.484 28.342V33.6976H101.473L101.492 26.705C101.492 25.5286 101.467 24.4574 101.417 23.4916H103.169L103.242 25.4445H103.298C103.51 24.7733 103.845 24.233 104.304 23.8277C104.752 23.4629 105.236 23.281 105.758 23.281C105.944 23.281 106.112 23.2959 106.261 23.3225V25.4849Z" fill="white"/>
<path d="M115.257 28.1113C115.257 28.5176 115.234 28.8601 115.184 29.1398H109.149C109.173 30.1482 109.464 30.9194 110.025 31.4512C110.533 31.9267 111.191 32.1649 111.998 32.1649C112.892 32.1649 113.707 32.0043 114.44 31.682L114.755 33.2563C113.899 33.6775 112.887 33.887 111.72 33.887C110.316 33.887 109.214 33.4212 108.412 32.4904C107.612 31.5597 107.211 30.3099 107.211 28.742C107.211 27.2029 107.584 25.9212 108.33 24.899C109.111 23.8076 110.167 23.262 111.495 23.262C112.8 23.262 113.788 23.8076 114.459 24.899C114.99 25.7659 115.257 26.838 115.257 28.1113ZM113.339 27.5231C113.352 26.8508 113.221 26.27 112.949 25.7797C112.6 25.1489 112.065 24.8341 111.345 24.8341C110.688 24.8341 110.153 25.1415 109.744 25.7584C109.409 26.2488 109.21 26.837 109.149 27.522H113.339V27.5231Z" fill="white"/>
<path d="M46.28 10.8337C46.28 12.0856 45.947 13.028 45.2818 13.6609C44.6656 14.2449 43.79 14.5374 42.6559 14.5374C42.0936 14.5374 41.6124 14.5097 41.2095 14.4544V7.6139C41.735 7.51817 42.3011 7.46924 42.9126 7.46924C43.9929 7.46924 44.8072 7.73409 45.3563 8.26381C45.9715 8.86266 46.28 9.71892 46.28 10.8337ZM45.2374 10.8645C45.2374 10.0529 45.0468 9.43066 44.6656 8.99668C44.2845 8.56376 43.7278 8.34677 42.9946 8.34677C42.6833 8.34677 42.4181 8.37017 42.1983 8.4191V13.6194C42.32 13.6407 42.5427 13.6503 42.8663 13.6503C43.623 13.6503 44.2071 13.4131 44.6185 12.9387C45.0298 12.4643 45.2374 11.7729 45.2374 10.8645Z" fill="white"/>
<path d="M51.8081 11.9273C51.8081 12.6985 51.6128 13.3303 51.2222 13.826C50.8127 14.3355 50.2702 14.5897 49.5927 14.5897C48.9398 14.5897 48.42 14.3461 48.0322 13.8568C47.6453 13.3686 47.4519 12.7528 47.4519 12.0103C47.4519 11.2338 47.651 10.5967 48.051 10.1021C48.4511 9.60746 48.9889 9.35962 49.6663 9.35962C50.3192 9.35962 50.8438 9.6032 51.2411 10.0914C51.6185 10.5658 51.8081 11.1785 51.8081 11.9273ZM50.7825 11.9635C50.7825 11.5008 50.6938 11.1041 50.5174 10.7732C50.3098 10.3733 50.0145 10.1733 49.6305 10.1733C49.2333 10.1733 48.9313 10.3733 48.7238 10.7732C48.5464 11.1041 48.4586 11.5072 48.4586 11.9837C48.4586 12.4464 48.5473 12.8432 48.7238 13.174C48.9379 13.5739 49.2361 13.7739 49.621 13.7739C49.9984 13.7739 50.2947 13.5707 50.5079 13.1633C50.691 12.8261 50.7825 12.4262 50.7825 11.9635Z" fill="white"/>
<path d="M59.2205 9.46167L57.8287 14.4758H56.923L56.3465 12.2985C56.2002 11.755 56.0813 11.2146 55.9889 10.6785H55.9709C55.8851 11.2295 55.7662 11.7688 55.6133 12.2985L55.001 14.4758H54.0848L52.7761 9.46167H53.7923L54.2952 11.8454C54.4169 12.4091 54.5169 12.9463 54.5971 13.4547H54.6151C54.6887 13.0356 54.8104 12.5017 54.9821 11.856L55.6133 9.46273H56.4191L57.0239 11.805C57.1702 12.3761 57.289 12.9261 57.3806 13.4558H57.4079C57.4749 12.9399 57.5759 12.39 57.7099 11.805L58.2496 9.46273H59.2205V9.46167Z" fill="white"/>
<path d="M64.3467 14.4757H63.3579V11.6038C63.3579 10.7188 63.0597 10.2763 62.4615 10.2763C62.1681 10.2763 61.9312 10.3975 61.7472 10.6411C61.5651 10.8847 61.4727 11.1719 61.4727 11.5006V14.4746H60.4838V10.8943C60.4838 10.4539 60.4716 9.97633 60.448 9.45938H61.317L61.3632 10.2433H61.3906C61.5057 9.99973 61.6774 9.79869 61.9029 9.63808C62.1709 9.45087 62.4709 9.3562 62.7993 9.3562C63.2144 9.3562 63.5598 9.50724 63.8343 9.81039C64.1759 10.1816 64.3467 10.7358 64.3467 11.4719V14.4757V14.4757Z" fill="white"/>
<path d="M67.0733 14.4758H66.0855V7.16089H67.0733V14.4758Z" fill="white"/>
<path d="M72.8949 11.9273C72.8949 12.6985 72.6996 13.3303 72.309 13.826C71.8995 14.3355 71.356 14.5897 70.6795 14.5897C70.0257 14.5897 69.5058 14.3461 69.119 13.8568C68.7321 13.3686 68.5387 12.7528 68.5387 12.0103C68.5387 11.2338 68.7378 10.5967 69.1378 10.1021C69.5379 9.60746 70.0757 9.35962 70.7522 9.35962C71.406 9.35962 71.9297 9.6032 72.3278 10.0914C72.7052 10.5658 72.8949 11.1785 72.8949 11.9273ZM71.8684 11.9635C71.8684 11.5008 71.7797 11.1041 71.6032 10.7732C71.3966 10.3733 71.1003 10.1733 70.7173 10.1733C70.3191 10.1733 70.0172 10.3733 69.8106 10.7732C69.6332 11.1041 69.5454 11.5072 69.5454 11.9837C69.5454 12.4464 69.6341 12.8432 69.8106 13.174C70.0247 13.5739 70.3229 13.7739 70.7078 13.7739C71.0852 13.7739 71.3806 13.5707 71.5938 13.1633C71.7778 12.8261 71.8684 12.4262 71.8684 11.9635Z" fill="white"/>
<path d="M77.6805 14.4759H76.7927L76.7191 13.8983H76.6917C76.3879 14.3589 75.9548 14.5897 75.3925 14.5897C74.9726 14.5897 74.6329 14.4376 74.3772 14.1355C74.1451 13.8611 74.0291 13.5197 74.0291 13.1144C74.0291 12.5017 74.2555 12.0348 74.7112 11.7114C75.166 11.3881 75.8057 11.2296 76.6294 11.237V11.1434C76.6294 10.4829 76.3218 10.1531 75.7057 10.1531C75.267 10.1531 74.8801 10.2776 74.5461 10.5243L74.3451 9.79254C74.7584 9.50428 75.2689 9.35962 75.8708 9.35962C77.0333 9.35962 77.6164 10.051 77.6164 11.4338V13.2803C77.6164 13.7813 77.6381 14.1802 77.6805 14.4759ZM76.654 12.7528V11.9795C75.5632 11.9582 75.0179 12.2954 75.0179 12.99C75.0179 13.2516 75.0802 13.4473 75.2075 13.5782C75.3349 13.709 75.4972 13.7739 75.6906 13.7739C75.9076 13.7739 76.1105 13.6962 76.2954 13.542C76.4813 13.3867 76.5955 13.1899 76.6379 12.9485C76.6483 12.8942 76.654 12.8283 76.654 12.7528Z" fill="white"/>
<path d="M83.2993 14.4758H82.4218L82.3755 13.6706H82.3482C82.068 14.2833 81.5905 14.5896 80.9197 14.5896C80.3838 14.5896 79.9375 14.3524 79.5837 13.878C79.2298 13.4036 79.0534 12.7877 79.0534 12.0315C79.0534 11.2199 79.2449 10.5625 79.6299 10.0605C80.0026 9.59246 80.4592 9.35845 81.0027 9.35845C81.6 9.35845 82.0179 9.58501 82.2557 10.0392H82.2746V7.16089H83.2643V13.1249C83.2643 13.6132 83.2757 14.0631 83.2993 14.4758ZM82.2746 12.3612V11.5252C82.2746 11.3805 82.2651 11.2635 82.2472 11.1741C82.1916 10.9061 82.0717 10.6806 81.8896 10.4987C81.7056 10.3168 81.4839 10.2253 81.2282 10.2253C80.8593 10.2253 80.5706 10.3902 80.3583 10.721C80.1479 11.0518 80.0413 11.4741 80.0413 11.99C80.0413 12.4857 80.1422 12.8877 80.3451 13.1973C80.5593 13.527 80.848 13.6919 81.2094 13.6919C81.5339 13.6919 81.7934 13.5547 81.9906 13.2792C82.1812 13.0249 82.2746 12.7186 82.2746 12.3612Z" fill="white"/>
<path d="M91.7561 11.9273C91.7561 12.6985 91.5608 13.3303 91.1702 13.826C90.7607 14.3355 90.2191 14.5897 89.5407 14.5897C88.8887 14.5897 88.3688 14.3461 87.9801 13.8568C87.5932 13.3686 87.3998 12.7528 87.3998 12.0103C87.3998 11.2338 87.5989 10.5967 87.9989 10.1021C88.399 9.60746 88.9368 9.35962 89.6152 9.35962C90.2672 9.35962 90.7928 9.6032 91.189 10.0914C91.5665 10.5658 91.7561 11.1785 91.7561 11.9273ZM90.7314 11.9635C90.7314 11.5008 90.6427 11.1041 90.4663 10.7732C90.2578 10.3733 89.9634 10.1733 89.5784 10.1733C89.1821 10.1733 88.8802 10.3733 88.6717 10.7732C88.4943 11.1041 88.4065 11.5072 88.4065 11.9837C88.4065 12.4464 88.4952 12.8432 88.6717 13.174C88.8859 13.5739 89.184 13.7739 89.569 13.7739C89.9464 13.7739 90.2436 13.5707 90.4569 13.1633C90.639 12.8261 90.7314 12.4262 90.7314 11.9635Z" fill="white"/>
<path d="M97.0729 14.4757H96.085V11.6038C96.085 10.7188 95.7869 10.2763 95.1877 10.2763C94.8943 10.2763 94.6574 10.3975 94.4744 10.6411C94.2914 10.8847 94.1998 11.1719 94.1998 11.5006V14.4746H93.2101V10.8943C93.2101 10.4539 93.1988 9.97633 93.1752 9.45938H94.0432L94.0894 10.2433H94.1168C94.2329 9.99973 94.4046 9.79869 94.6291 9.63808C94.898 9.45087 95.1971 9.3562 95.5264 9.3562C95.9406 9.3562 96.286 9.50724 96.5605 9.81039C96.903 10.1816 97.0729 10.7358 97.0729 11.4719V14.4757V14.4757Z" fill="white"/>
<path d="M103.728 10.2966H102.639V12.7325C102.639 13.3515 102.832 13.661 103.215 13.661C103.393 13.661 103.54 13.644 103.656 13.6089L103.681 14.4546C103.486 14.5375 103.229 14.579 102.913 14.579C102.523 14.579 102.219 14.445 101.999 14.1769C101.778 13.9089 101.669 13.4579 101.669 12.825V10.2966H101.019V9.46165H101.669V8.54263L102.638 8.21289V9.46059H103.727V10.2966H103.728Z" fill="white"/>
<path d="M108.962 14.4758H107.972V11.6251C107.972 10.7263 107.674 10.2764 107.077 10.2764C106.618 10.2764 106.305 10.537 106.133 11.0582C106.104 11.1678 106.087 11.3018 106.087 11.4592V14.4747H105.099V7.16089H106.087V10.1828H106.106C106.418 9.63288 106.864 9.35845 107.442 9.35845C107.852 9.35845 108.19 9.50949 108.459 9.81264C108.794 10.1902 108.962 10.7519 108.962 11.4943V14.4758V14.4758Z" fill="white"/>
<path d="M114.362 11.7314C114.362 11.9314 114.349 12.0995 114.325 12.2367H111.36C111.373 12.7324 111.514 13.11 111.789 13.3716C112.04 13.6056 112.364 13.7226 112.76 13.7226C113.199 13.7226 113.599 13.6439 113.959 13.4854L114.114 14.2598C113.692 14.4661 113.196 14.5693 112.621 14.5693C111.932 14.5693 111.39 14.3406 110.997 13.8833C110.603 13.4259 110.408 12.8121 110.408 12.042C110.408 11.2857 110.59 10.656 110.957 10.154C111.34 9.6179 111.858 9.34985 112.512 9.34985C113.151 9.34985 113.637 9.6179 113.966 10.154C114.231 10.5795 114.362 11.106 114.362 11.7314ZM113.418 11.4432C113.426 11.1124 113.361 10.8273 113.227 10.5869C113.055 10.2774 112.794 10.1221 112.44 10.1221C112.117 10.1221 111.854 10.2731 111.653 10.5763C111.489 10.8177 111.392 11.106 111.36 11.4432H113.418Z" fill="white"/>
</svg>
