<svg width="428" height="412" viewBox="0 0 428 412" fill="none" xmlns="http://www.w3.org/2000/svg">
<path d="M11.1046 262.777C11.1046 262.777 36.9989 331.085 110.042 356.622C183.084 382.159 263.586 357.029 329.334 338.4C395.082 319.77 431.875 265.46 420.347 207.42C408.819 149.381 354.153 150.718 305.92 97.2313C257.687 43.745 252.959 22.1799 183.326 3.59868C113.694 -14.9825 33.6761 40.4027 10.2036 123.369C-13.2688 206.335 11.1046 262.777 11.1046 262.777Z" fill="#33BB51"/>
<path opacity="0.7" d="M11.1046 262.777C11.1046 262.777 36.9989 331.085 110.042 356.622C183.084 382.159 263.586 357.029 329.334 338.4C395.082 319.77 431.875 265.46 420.347 207.42C408.819 149.381 354.153 150.718 305.92 97.2313C257.687 43.745 252.959 22.1799 183.326 3.59868C113.694 -14.9825 33.6761 40.4027 10.2036 123.369C-13.2688 206.335 11.1046 262.777 11.1046 262.777Z" fill="white"/>
<path d="M164.213 33.505C161.777 36.1437 160.065 39.3676 159.244 42.8635C157.446 40.4356 154.822 38.7495 151.867 38.1231C148.912 37.4967 145.829 37.9733 143.201 39.463C142.716 33.663 140.158 28.2317 135.995 24.1634C131.833 20.0951 126.345 17.6619 120.536 17.309C114.726 16.9561 108.984 18.7072 104.36 22.2418C99.7361 25.7764 96.5395 30.858 95.3555 36.5567C92.512 33.7567 88.7128 32.1388 84.7237 32.0292C80.7346 31.9195 76.8523 33.3262 73.8593 35.9658" stroke="#263238" stroke-miterlimit="10"/>
<path d="M230.271 7.93889C228.627 7.68535 226.965 7.55903 225.302 7.56106C217.999 7.55863 210.916 10.0565 205.23 14.6391C199.545 19.2217 195.599 25.6128 194.05 32.7494C190.768 29.5123 186.501 27.46 181.923 26.9162C177.345 26.3725 172.716 27.3681 168.766 29.7461" stroke="#263238" stroke-miterlimit="10"/>
<path d="M248.232 17.2683C245.975 14.9503 243.378 12.9902 240.53 11.4556" stroke="#263238" stroke-miterlimit="10"/>
<path d="M236.723 48.3952H295.816C295.068 47.1417 294.063 46.0607 292.867 45.2234C291.671 44.386 290.312 43.8112 288.878 43.5367C287.444 43.2622 285.968 43.2942 284.548 43.6306C283.127 43.9671 281.794 44.6004 280.636 45.4888C279.853 43.2243 278.583 41.1595 276.914 39.4407C275.245 37.7219 273.218 36.3911 270.977 35.5426C268.737 34.694 266.337 34.3485 263.948 34.5304C261.56 34.7124 259.24 35.4174 257.154 36.5954C256.622 30.8028 254.511 25.2672 251.051 20.5912" stroke="#263238" stroke-miterlimit="10"/>
<path d="M71.389 38.7074C69.5062 41.3605 68.4909 44.5315 68.4828 47.7849C68.4828 47.9786 68.4828 48.1724 68.4828 48.3661H225.03" stroke="#263238" stroke-miterlimit="10"/>
<path d="M280.985 58.8967C279.113 57.3011 276.86 56.2185 274.445 55.7547C272.03 55.2909 269.535 55.4617 267.206 56.2505C264.877 57.0394 262.792 58.4192 261.156 60.2551C259.519 62.091 258.388 64.3201 257.871 66.7245C256.703 65.5654 255.247 64.7394 253.653 64.3319C252.06 63.9243 250.386 63.9501 248.805 64.4065C247.225 64.8629 245.795 65.7333 244.664 66.9277C243.532 68.1222 242.741 69.5972 242.371 71.2002C241.566 70.1263 240.398 69.3812 239.085 69.1032C237.772 68.8253 236.402 69.0334 235.231 69.689C235.025 67.099 233.89 64.6708 232.035 62.8509C230.181 61.0311 227.732 59.942 225.139 59.784C222.546 59.6261 219.983 60.4099 217.921 61.9912C215.86 63.5725 214.439 65.8451 213.919 68.3908C212.932 67.4214 211.681 66.7651 210.322 66.5042C208.963 66.2434 207.558 66.3896 206.282 66.9246C205.006 67.4596 203.917 68.3595 203.15 69.5114C202.384 70.6633 201.975 72.0158 201.975 73.3994C201.975 73.4866 201.975 73.5641 201.975 73.6513H303.14C302.802 73.0947 302.351 72.6155 301.815 72.2451C301.28 71.8747 300.672 71.6214 300.033 71.5016C299.393 71.3819 298.735 71.3984 298.102 71.5501C297.469 71.7018 296.875 71.9854 296.358 72.3822C296.011 71.375 295.445 70.4568 294.703 69.6924C293.961 68.928 293.059 68.3363 292.063 67.9591C291.066 67.582 289.999 67.4286 288.937 67.5099C287.874 67.5912 286.843 67.9051 285.915 68.4295C285.824 67.3684 285.61 66.3215 285.276 65.3101" stroke="#263238" stroke-miterlimit="10"/>
<path d="M15.2895 178.047C15.2895 178.047 148.152 54.7406 163.37 53.8493C178.425 52.9677 286.516 164.649 286.516 164.649C286.516 164.649 360.934 99.973 368.907 99.973C376.88 99.973 387.546 114.098 387.546 114.098" stroke="#263238" stroke-linecap="round" stroke-linejoin="round"/>
<path d="M253.734 144.227L247.04 137.833" stroke="#263238" stroke-linecap="round" stroke-linejoin="round"/>
<path d="M177.679 80.8202L200.58 101.697" stroke="#263238" stroke-linecap="round" stroke-linejoin="round"/>
<path d="M170.452 74.2324L174.714 78.1075" stroke="#263238" stroke-linecap="round" stroke-linejoin="round"/>
<path d="M239.707 130.819L194.38 87.5144" stroke="#263238" stroke-linecap="round" stroke-linejoin="round"/>
<path d="M401.738 343.873C400.856 336.869 388.602 347.38 388.602 347.38C390.258 343.194 391.148 338.744 391.227 334.243C391.227 327.239 382.508 335.987 382.508 335.987C382.508 335.987 388.64 324.604 387.768 312.349C386.897 300.094 373.751 314.102 373.751 314.102C373.751 314.102 379.011 295.696 379.883 290.454C380.755 285.213 355.364 296.587 355.364 296.587C355.364 296.587 357.118 288.701 357.989 280.825C358.445 276.795 354.115 278.471 349.736 281.077C348.767 277.57 346.181 277.328 343.303 278.422C343.487 277.55 343.691 276.601 343.914 275.584C344.882 270.866 338.159 276.184 332.57 281.212C331.894 275.086 329.122 269.381 324.723 265.063C320.49 260.829 315.927 265.547 312.13 272.174L305.842 274.111C305.765 272.891 305.639 271.631 305.455 270.333C304.322 262.408 297.705 270.953 293.162 277.986L288.318 279.478C287.543 274.518 285.644 267.281 280.975 261.575C273.099 251.945 254.703 279.091 254.703 279.091C254.703 279.091 243.32 260.684 238.942 270.372C234.563 280.059 240.695 300.152 240.695 300.152C240.695 300.152 238.07 293.138 234.573 291.433C231.075 289.728 221.436 297.556 221.436 297.556C221.436 297.556 226.687 285.301 221.436 280.922C216.68 276.959 210.509 290.89 209.366 293.603C210.17 291.549 213.241 282.656 210.926 270.41C208.3 256.402 197.79 274.789 197.79 274.789C197.79 274.789 199.543 257.274 189.914 254.648C180.285 252.023 194.293 254.648 184.654 272.164C175.015 289.679 178.531 259.909 164.514 261.653C150.496 263.396 154.012 315.953 154.012 315.953L98.7655 284.351C98.7655 284.351 96.1402 279.091 87.2472 277.502C78.3542 275.913 83.8857 289.621 83.8857 289.621C83.8857 289.621 71.6215 278.238 66.371 278.238C65.0051 278.238 60.8104 284.312 55.3468 293.303C54.9496 292.382 54.5427 291.443 54.1165 290.493C50.7937 283.198 47.9844 299.513 46.8122 307.854L45.8435 309.53C45.1363 305.412 43.0729 298.34 37.4736 298.34C30.6924 298.34 34.2865 321.707 35.4199 328.198V328.276C34.548 324.585 32.039 315.682 27.8831 314.974C22.6326 314.102 27.0016 334.243 27.0016 334.243C27.0016 334.243 23.5044 331.618 20.8791 331.618C18.9417 331.618 21.6251 343.834 23.2526 350.703C17.7308 360.972 13.9818 368.093 13.9818 368.093L48.8562 349.134H232.131L223.267 361.398H398.202C398.202 361.398 402.609 350.897 401.738 343.873Z" fill="black"/>
<path d="M190.069 361.195H196.433L200.308 220.722L208.465 196.154L199.872 212.342L201.141 196.531L214.897 168.534L201.645 185.972L200.58 144.052L198.778 169.851L192.278 165.976L197.974 174.598L196.424 205.115L191.28 196.987L195.707 211.451L190.069 361.195Z" fill="#263238"/>
<path d="M214.355 370.505C212.088 361.515 208.378 350.354 203.205 346.188C194.021 338.787 179.083 350.422 171.043 345.132C163.002 339.843 180.226 288.042 152.637 284.874C125.047 281.706 114.721 334.563 102.079 339.843C89.4366 345.123 84.8448 326.106 67.6109 325.05C52.5471 324.081 23.4269 361.166 16.3455 370.505H214.355Z" fill="#33BB51"/>
<path opacity="0.46" d="M214.355 370.505C212.088 361.515 208.378 350.354 203.205 346.188C194.021 338.787 179.083 350.422 171.043 345.132C163.002 339.843 180.226 288.042 152.637 284.874C125.047 281.706 114.721 334.563 102.079 339.843C89.4366 345.123 84.8448 326.106 67.6109 325.05C52.5471 324.081 23.4269 361.166 16.3455 370.505H214.355Z" fill="black"/>
<path d="M153.112 361.195H159.476L163.351 220.722L171.518 196.105L162.925 212.293L164.194 196.483L177.95 168.485L164.736 185.962L163.593 144.052L161.83 169.851L155.33 165.976L161.026 174.598L159.476 205.115L154.332 196.987L158.759 211.451L153.112 361.195Z" fill="#C7CACB"/>
<path d="M67.4656 361.195H73.8302L77.7052 220.722L85.8619 196.154L77.2596 212.342L78.5383 196.531L92.3137 168.524L79.0614 185.962L77.928 144.052L76.1261 169.851L69.6259 165.976L75.3221 174.598L73.7721 205.115L68.6184 196.987L73.0552 211.451L67.4656 361.195Z" fill="#A8ADAF"/>
<path d="M250.063 361.195H256.427L260.302 253.224L268.498 234.401L259.895 246.84L261.164 234.692L274.92 213.088L261.668 226.554L260.525 194.352L258.704 214.183L252.213 211.218L257.909 217.835L256.35 241.289L251.206 235.04L255.633 246.152L250.063 361.195Z" fill="#C7CACB"/>
<path d="M175.722 361.195H182.086L185.961 253.224L194.147 234.401L185.555 246.84L186.824 234.692L200.58 213.088L187.327 226.554L186.184 194.352L184.382 214.183L177.882 211.218L183.588 217.835L182.028 241.289L176.884 235.04L181.311 246.152L175.722 361.195Z" fill="#C7CACB"/>
<path d="M224.401 361.195H230.756L234.631 253.224L242.826 234.401L234.224 246.84L235.503 234.692L249.249 213.088L235.997 226.554L234.853 194.352L233.061 214.183L226.561 211.218L232.257 217.835L230.707 241.289L225.554 235.04L229.99 246.152L224.401 361.195Z" fill="#C7CACB"/>
<path d="M365.333 361.195H371.697L375.572 220.722L383.729 196.153L375.136 212.342L376.405 196.531L390.161 168.534L376.909 185.972L375.766 144.062L373.983 169.851L367.483 165.976L373.179 174.598L371.629 205.115L366.485 196.987L370.912 211.451L365.333 361.195Z" fill="#263238"/>
<path d="M326.825 361.195H333.18L337.055 220.722L345.222 196.154L336.619 212.342L337.898 196.531L351.702 168.524L338.45 185.962L337.307 144.052L335.515 169.851L329.015 165.976L334.711 174.598L333.161 205.115L328.007 196.987L332.444 211.451L326.825 361.195Z" fill="#8A9094"/>
<path d="M260.806 361.195H267.161L271.036 220.722L279.192 196.154L270.59 212.342L271.869 196.531L285.654 168.524L272.402 185.962L271.297 144.052L269.505 169.851L263.005 165.976L268.701 174.598L267.151 205.115L261.997 196.987L266.434 211.451L260.806 361.195Z" fill="#263238"/>
<path d="M356.672 370.505C354.735 361.515 351.499 350.354 347.033 346.188C339.08 338.787 326.147 350.422 319.192 345.132C312.236 339.843 327.145 288.042 303.285 284.874C279.425 281.706 270.474 334.563 259.537 339.843C248.6 345.123 244.618 326.106 229.71 325.05C216.67 324.081 191.474 361.166 185.341 370.505H356.672Z" fill="#33BB51"/>
<path opacity="0.25" d="M356.672 370.505C354.735 361.515 351.499 350.354 347.033 346.188C339.08 338.787 326.147 350.422 319.192 345.132C312.236 339.843 327.145 288.042 303.285 284.874C279.425 281.706 270.474 334.563 259.537 339.843C248.6 345.123 244.618 326.106 229.71 325.05C216.67 324.081 191.474 361.166 185.341 370.505H356.672Z" fill="black"/>
<path d="M247.544 148.606C247.544 148.606 233.778 148.606 229.768 170.975C225.757 193.344 236.074 199.07 223.451 210.559C210.829 222.049 209.114 230.07 215.421 235.234C221.727 240.398 225.176 246.133 217.145 254.736C209.114 263.338 207.961 275.962 236.646 283.993C265.33 292.024 287.126 272.522 288.279 259.328C289.432 246.133 279.667 237.52 279.096 226.622C278.524 215.723 298.606 205.396 296.31 190.486C294.014 175.577 273.361 181.302 267.626 169.832C261.891 158.361 261.31 148.606 247.544 148.606Z" fill="#33BB51"/>
<path opacity="0.46" d="M247.544 148.606C247.544 148.606 233.778 148.606 229.768 170.975C225.757 193.344 236.074 199.07 223.451 210.559C210.829 222.049 209.114 230.07 215.421 235.234C221.727 240.398 225.176 246.133 217.145 254.736C209.114 263.338 207.961 275.962 236.646 283.993C265.33 292.024 287.126 272.522 288.279 259.328C289.432 246.133 279.667 237.52 279.096 226.622C278.524 215.723 298.606 205.396 296.31 190.486C294.014 175.577 273.361 181.302 267.626 169.832C261.891 158.361 261.31 148.606 247.544 148.606Z" fill="black"/>
<path d="M237.392 366.029H242.419L249.53 226.06L255.982 206.684L249.2 219.482L250.169 206.984L261.038 184.838L250.566 198.663L249.656 165.53L248.241 185.875L243.097 182.833L247.602 189.614L246.372 213.737L242.303 207.314L245.81 218.745L237.392 366.029Z" fill="#92989B"/>
<path d="M161.404 370.505C162.876 362.212 165.279 351.904 168.66 348.068C174.647 341.238 184.363 351.943 189.604 347.099C194.845 342.255 183.617 294.417 201.568 291.491C219.518 288.565 226.251 337.344 234.505 342.226C242.758 347.109 245.723 329.535 256.941 328.566C266.754 327.714 285.702 361.902 290.314 370.515L161.404 370.505Z" fill="#33BB51"/>
<path opacity="0.46" d="M161.404 370.505C162.876 362.212 165.279 351.904 168.66 348.068C174.647 341.238 184.363 351.943 189.604 347.099C194.845 342.255 183.617 294.417 201.568 291.491C219.518 288.565 226.251 337.344 234.505 342.226C242.758 347.109 245.723 329.535 256.941 328.566C266.754 327.714 285.702 361.902 290.314 370.515L161.404 370.505Z" fill="black"/>
<path d="M229.797 370.505C228.47 364.789 226.29 357.678 223.267 355.004C217.881 350.296 209.134 357.698 204.425 354.336C199.717 350.974 209.802 317.987 193.653 315.972C177.504 313.957 171.44 347.603 164.039 350.965C156.638 354.326 153.945 342.246 143.85 341.548C135.025 340.957 117.966 364.547 113.82 370.485L229.797 370.505Z" fill="#33BB51"/>
<path d="M45.0975 288.788C45.0975 288.788 31.884 290.183 13.1293 272.106C-5.62545 254.028 31.2156 190.04 45.8144 176.129C60.4133 162.217 90.3763 251.238 79.197 267.93C68.0178 284.622 56.238 288.1 45.0975 288.788Z" fill="#33BB51"/>
<path opacity="0.46" d="M45.0975 288.788C45.0975 288.788 31.884 290.183 13.1293 272.106C-5.62545 254.028 31.2156 190.04 45.8144 176.129C60.4133 162.217 90.3763 251.238 79.197 267.93C68.0178 284.622 56.238 288.1 45.0975 288.788Z" fill="black"/>
<path d="M39.5273 361.815L41.6198 268.628L32.5718 258.892L42.3076 264.453V247.76L29.7915 233.161L41.6198 242.2L40.2248 230.381L43.7025 235.941L45.7853 202.557L47.1803 253.321L70.1297 240.805L47.1803 260.277V269.316V364.595" fill="#263238"/>
<path d="M366.543 210.986C366.543 210.986 353.33 212.371 334.575 194.293C315.82 176.216 352.671 112.228 367.202 98.3163C381.733 84.4046 411.764 173.426 400.585 190.118C389.406 206.81 377.665 210.288 366.543 210.986Z" fill="#33BB51"/>
<path d="M355.887 357.833L363.066 190.815L354.027 181.079L363.763 186.64V169.948L351.237 155.348L363.066 164.387L361.671 152.568L365.148 158.129L367.241 124.745L368.626 175.518L391.575 162.992L368.626 182.465V191.513L363.54 360.614" fill="#A8ADAF"/>
<path d="M74.7602 368.093C74.6001 367.318 74.285 366.585 73.8338 365.935C73.3826 365.286 72.8048 364.735 72.135 364.314C69.5388 362.9 69.5387 364.314 66.4679 363.346C64.4335 362.716 64.8404 358.134 64.6757 356.564C64.1623 351.769 61.5079 347.622 56.6158 346.382C54.1823 345.742 51.6259 345.732 49.1872 346.352C46.7485 346.972 44.5077 348.203 42.6757 349.928C36.7761 355.595 37.4833 360.585 33.7052 360.788C29.9271 360.992 27.8056 356.303 21.1988 359.131C17.1398 360.875 15.0377 365.099 14.0205 368.102L74.7602 368.093Z" fill="#33BB51"/>
<path opacity="0.5" d="M74.7602 368.093C74.6001 367.318 74.285 366.585 73.8338 365.935C73.3826 365.286 72.8048 364.735 72.135 364.314C69.5388 362.9 69.5387 364.314 66.4679 363.346C64.4335 362.716 64.8404 358.134 64.6757 356.564C64.1623 351.769 61.5079 347.622 56.6158 346.382C54.1823 345.742 51.6259 345.732 49.1872 346.352C46.7485 346.972 44.5077 348.203 42.6757 349.928C36.7761 355.595 37.4833 360.585 33.7052 360.788C29.9271 360.992 27.8056 356.303 21.1988 359.131C17.1398 360.875 15.0377 365.099 14.0205 368.102L74.7602 368.093Z" fill="white"/>
<path d="M20.1235 367.754C20.1235 367.754 21.1698 363.442 24.696 363.055C28.2222 362.667 30.7021 368.412 35.9333 363.578C41.1645 358.744 44.2935 346.46 52.4018 346.857C60.5101 347.254 60.3745 357.049 59.4542 361.098C58.5339 365.148 63.9007 364.973 66.2353 364.489C68.57 364.004 71.3309 366.581 71.3309 368.151" stroke="#263238" stroke-width="0.903884" stroke-linecap="round" stroke-linejoin="round"/>
<path d="M27.4375 368.015L24.57 365.409" stroke="#263238" stroke-width="0.903884" stroke-linecap="round" stroke-linejoin="round"/>
<path d="M44.9425 368.151L52.6536 352.476" stroke="#263238" stroke-width="0.903884" stroke-linecap="round" stroke-linejoin="round"/>
<path d="M48.7303 353.648L49.6506 358.744L55.7924 355.343" stroke="#263238" stroke-width="0.903884" stroke-linecap="round" stroke-linejoin="round"/>
<path d="M43.7704 358.87L46.9091 364.624L53.0412 362.658" stroke="#263238" stroke-width="0.903884" stroke-linecap="round" stroke-linejoin="round"/>
<path d="M204.542 366.484C204.363 365.629 204.014 364.818 203.515 364.1C203.015 363.383 202.376 362.773 201.635 362.309C198.729 360.74 198.729 362.309 195.368 361.263C193.12 360.575 193.566 355.508 193.382 353.774C192.82 348.465 189.885 343.883 184.47 342.507C181.769 341.785 178.93 341.761 176.218 342.439C173.507 343.117 171.012 344.474 168.97 346.382C162.44 352.65 163.225 358.134 159.05 358.395C154.875 358.657 152.521 353.435 145.207 356.564C140.721 358.502 138.426 363.162 137.273 366.484H204.542Z" fill="#33BB51"/>
<path opacity="0.5" d="M204.542 366.484C204.363 365.629 204.014 364.818 203.515 364.1C203.015 363.383 202.376 362.773 201.635 362.309C198.729 360.74 198.729 362.309 195.368 361.263C193.12 360.575 193.566 355.508 193.382 353.774C192.82 348.465 189.885 343.883 184.47 342.507C181.769 341.785 178.93 341.761 176.218 342.439C173.507 343.117 171.012 344.474 168.97 346.382C162.44 352.65 163.225 358.134 159.05 358.395C154.875 358.657 152.521 353.435 145.207 356.564C140.721 358.502 138.426 363.162 137.273 366.484H204.542Z" fill="white"/>
<path d="M152.191 366.388L149.014 363.501" stroke="#263238" stroke-linecap="round" stroke-linejoin="round"/>
<path d="M171.556 366.533L180.081 349.192" stroke="#263238" stroke-linecap="round" stroke-linejoin="round"/>
<path d="M175.751 350.49L176.758 356.128L183.549 352.369" stroke="#263238" stroke-linecap="round" stroke-linejoin="round"/>
<path d="M170.258 356.274L173.726 362.638L180.517 360.468" stroke="#263238" stroke-linecap="round" stroke-linejoin="round"/>
<path d="M96.6246 82.9418C96.6246 82.9418 76.7946 82.9418 71.0112 115.163C65.2279 147.385 80.098 155.649 61.9245 172.166C43.751 188.684 41.271 200.261 50.3675 207.692C59.4639 215.122 64.4044 223.386 52.8377 235.786C41.271 248.187 39.6242 266.361 80.9311 277.928C122.238 289.495 153.586 261.401 155.282 242.403C156.977 223.405 142.882 211.005 142.058 195.311C141.235 179.616 170.152 164.746 166.839 143.268C163.525 121.79 133.795 130.044 125.541 113.526C117.288 97.0085 116.455 82.9418 96.6246 82.9418Z" fill="#33BB51"/>
<path opacity="0.18" d="M96.6246 82.9418C96.6246 82.9418 76.7946 82.9418 71.0112 115.163C65.2279 147.385 80.098 155.649 61.9245 172.166C43.751 188.684 41.271 200.261 50.3675 207.692C59.4639 215.122 64.4044 223.386 52.8377 235.786C41.271 248.187 39.6242 266.361 80.9311 277.928C122.238 289.495 153.586 261.401 155.282 242.403C156.977 223.405 142.882 211.005 142.058 195.311C141.235 179.616 170.152 164.746 166.839 143.268C163.525 121.79 133.795 130.044 125.541 113.526C117.288 97.0085 116.455 82.9418 96.6246 82.9418Z" fill="black"/>
<path d="M81.9482 396.052H89.175L99.4146 194.487L108.714 166.518L98.9205 184.925L100.374 166.925L116.028 135.043L100.935 154.961L99.6374 107.239L97.5933 136.622L90.1922 132.224L96.6827 142.037L94.9099 176.778L89.0975 167.526L94.1446 183.995L81.9482 396.052Z" fill="#263238"/>
<path d="M284.511 101.92C284.511 101.92 264.7 102.608 260.041 135.014C255.381 167.419 270.522 175.15 252.94 192.298C235.357 209.445 233.274 221.09 242.613 228.201C251.952 235.312 257.193 243.401 246.062 256.189C234.931 268.977 233.924 287.19 275.599 297.314C317.274 307.437 347.682 278.277 348.67 259.231C349.658 240.185 335.195 228.288 333.82 212.632C332.444 196.977 360.828 181.118 356.779 159.805C352.729 138.492 323.299 147.744 314.464 131.516C305.629 115.289 304.322 101.232 284.511 101.92Z" fill="#33BB51"/>
<g opacity="0.5">
<path d="M284.511 101.92C284.511 101.92 264.7 102.608 260.041 135.014C255.381 167.419 270.522 175.15 252.94 192.298C235.357 209.445 233.274 221.09 242.613 228.201C251.952 235.312 257.193 243.401 246.062 256.189C234.931 268.977 233.924 287.19 275.599 297.314C317.274 307.437 347.682 278.277 348.67 259.231C349.658 240.185 335.195 228.288 333.82 212.632C332.444 196.977 360.828 181.118 356.779 159.805C352.729 138.492 323.299 147.744 314.464 131.516C305.629 115.289 304.322 101.232 284.511 101.92Z" fill="white"/>
</g>
<path d="M278.698 376.947L285.935 376.695L291.185 213.301L299.497 184.993L290.352 203.749L291.176 185.71L305.707 153.304L291.321 173.726L288.357 126.072L287.33 155.503L279.783 151.376L286.613 160.958L286.051 195.747L279.871 186.698L285.48 202.974L278.698 376.947Z" fill="#263238"/>
<path d="M406.533 370.505C404.808 363.045 401.97 353.774 398.018 350.316C391.004 344.174 379.612 353.832 373.45 349.444C367.289 345.055 380.464 302.041 359.404 299.406C338.344 296.771 330.439 340.667 320.78 345.055C311.122 349.444 307.615 333.643 294.45 332.761C282.942 331.996 260.699 362.794 255.284 370.544L406.533 370.505Z" fill="#33BB51"/>
<path d="M168.737 372.423C169.396 367.308 169.754 357.891 164.601 352.757C157.287 345.443 146.321 357.32 143.579 357.32C140.838 357.32 139.917 350.015 131.693 343.612C123.468 337.208 113.413 345.443 107.93 343.612C102.447 341.781 112.502 313.453 96.9636 312.543C81.4251 311.632 75.9421 350.926 64.9954 350.926C54.0486 350.926 52.1984 343.612 41.2323 350.015C32.6396 355.024 27.98 367.318 26.3622 372.423H168.737Z" fill="#33BB51"/>
<path opacity="0.25" d="M168.737 372.423C169.396 367.308 169.754 357.891 164.601 352.757C157.287 345.443 146.321 357.32 143.579 357.32C140.838 357.32 139.917 350.015 131.693 343.612C123.468 337.208 113.413 345.443 107.93 343.612C102.447 341.781 112.502 313.453 96.9636 312.543C81.4251 311.632 75.9421 350.926 64.9954 350.926C54.0486 350.926 52.1984 343.612 41.2323 350.015C32.6396 355.024 27.98 367.318 26.3622 372.423H168.737Z" fill="black"/>
<path d="M55.8602 371.193L46.0469 355.256" stroke="#263238" stroke-linecap="round" stroke-linejoin="round"/>
<path d="M91.0059 369.962L95.9077 323.781" stroke="#263238" stroke-linecap="round" stroke-linejoin="round"/>
<path d="M119.206 370.786L124.108 352.805" stroke="#263238" stroke-linecap="round" stroke-linejoin="round"/>
<path d="M153.935 371.6L158.846 358.928" stroke="#263238" stroke-linecap="round" stroke-linejoin="round"/>
<path d="M56.6739 355.663L51.7721 364.247L40.3314 359.751" stroke="#263238" stroke-linecap="round" stroke-linejoin="round"/>
<path d="M88.5551 327.462L94.2706 337.683L102.04 328.276" stroke="#263238" stroke-linecap="round" stroke-linejoin="round"/>
<path d="M85.2807 343.815L92.6431 352.805L99.9958 347.08" stroke="#263238" stroke-linecap="round" stroke-linejoin="round"/>
<path d="M122.064 360.565L131.867 354.849" stroke="#263238" stroke-linecap="round" stroke-linejoin="round"/>
<path d="M121.25 363.84L116.338 351.168" stroke="#263238" stroke-linecap="round" stroke-linejoin="round"/>
<path d="M156.396 365.06L153.935 356.884" stroke="#263238" stroke-linecap="round" stroke-linejoin="round"/>
<path d="M155.572 366.698L162.518 363.84" stroke="#263238" stroke-linecap="round" stroke-linejoin="round"/>
<path d="M204.387 143.936C201.247 137.834 197.196 132.244 192.374 127.36C188.931 123.873 184.743 121.211 180.124 119.572C175.506 117.933 170.576 117.36 165.705 117.895C146.059 120.124 140.683 145.167 135.122 160.396C121.831 196.773 105.343 250.725 155.039 266.613C176.458 273.462 205.879 266.613 214.491 243.653C221.94 223.793 221.824 201.927 217.31 181.409C214.636 169.405 210.674 155.736 204.387 143.936Z" fill="#33BB51"/>
<path d="M163.768 395.78H171.014L175.392 235.796L184.683 207.827L174.889 226.234L176.361 208.244L192.016 176.361L176.942 196.289L175.644 148.567L173.591 177.94L166.189 173.552L172.68 183.366L170.907 218.106L165.095 208.854L170.132 225.323L163.768 395.78Z" fill="#263238"/>
<path d="M173.755 295.715L173.891 290.987C172.738 290.987 171.101 291.385 171.101 293.128C171.101 294.572 172.486 295.328 173.755 295.715Z" fill="#808080"/>
<path d="M172.293 241.531C172.293 243.071 173.852 243.817 175.199 244.186L175.334 239.342C174.182 239.39 172.293 239.661 172.293 241.531Z" fill="#808080"/>
<path d="M171.401 263.309C171.401 264.956 173.193 265.702 174.579 266.032L174.714 261.188C173.639 261.12 171.401 261.265 171.401 263.309Z" fill="#808080"/>
<path d="M174.085 212.012C174.462 210.482 172.651 210.424 171.295 210.579L171.053 215.422C172.06 214.822 173.678 213.621 174.085 212.012Z" fill="#808080"/>
<path d="M168.117 367.986C168.117 369.788 170.258 370.515 171.673 370.796L171.808 365.884C171.033 365.797 168.117 365.661 168.117 367.986Z" fill="#808080"/>
<path d="M172.089 195.049L171.847 199.796C173.157 199.073 174.164 197.905 174.685 196.502C175.044 195.049 173.455 194.923 172.089 195.049Z" fill="#808080"/>
<path d="M173.455 181.292C173.455 182.91 175.199 183.656 176.574 183.995L176.439 179.151C175.325 179.18 173.455 179.442 173.455 181.292Z" fill="#808080"/>
<path d="M171.518 336.346C172.244 333.439 168.476 333.517 166.044 333.856L165.715 342.662C167.459 341.664 170.743 339.426 171.518 336.346Z" fill="#808080"/>
<path d="M172.293 345.617C172.293 345.617 168.418 345.026 168.418 347.709C168.418 349.647 170.839 350.325 172.234 350.616L172.36 346.024L172.293 345.617Z" fill="#808080"/>
<path d="M169.309 308.716C169.309 311.031 171.246 312.407 173.271 313.202L173.503 304.783C171.518 305.035 169.309 305.936 169.309 308.716Z" fill="#808080"/>
<path d="M167.294 300.326L167.12 305.044C168.41 304.325 169.4 303.167 169.909 301.78C170.278 300.278 168.611 300.201 167.294 300.326Z" fill="#808080"/>
<path d="M169.134 251.083L168.979 255.133C169.842 254.491 170.48 253.592 170.801 252.566C171.082 251.442 170.171 251.122 169.134 251.083Z" fill="#808080"/>
<path d="M169.909 327.133C170.374 325.282 167.604 325.583 166.345 325.815L166.151 330.95C166.732 330.659 169.377 329.254 169.909 327.133Z" fill="#808080"/>
<path d="M358.425 70.8417C355.289 64.737 351.238 59.1472 346.413 54.2659C342.968 50.7776 338.779 48.1142 334.159 46.475C329.538 44.8359 324.607 44.2635 319.734 44.8009C300.098 47.0194 294.712 72.072 289.151 87.2916C275.831 123.679 259.343 177.63 309.078 193.518C330.506 200.368 359.927 193.518 368.529 170.558C375.979 150.689 375.863 128.833 371.358 108.314C368.675 96.3109 364.713 82.6414 358.425 70.8417Z" fill="#33BB51"/>
<path opacity="0.18" d="M358.425 70.8417C355.289 64.737 351.238 59.1472 346.413 54.2659C342.968 50.7776 338.779 48.1142 334.159 46.475C329.538 44.8359 324.607 44.2635 319.734 44.8009C300.098 47.0194 294.712 72.072 289.151 87.2916C275.831 123.679 259.343 177.63 309.078 193.518C330.506 200.368 359.927 193.518 368.529 170.558C375.979 150.689 375.863 128.833 371.358 108.314C368.675 96.3109 364.713 82.6414 358.425 70.8417Z" fill="black"/>
<path d="M315.016 368.093H322.262L329.421 162.711L338.712 134.742L328.927 153.149L330.39 135.169L346.055 103.286L330.962 123.195L329.683 75.5209L327.629 104.894L320.238 100.506L326.719 110.319L324.956 145.06L319.095 135.808L324.132 152.277L315.016 368.093Z" fill="#263238"/>
<path d="M325.052 181.05C325.421 179.607 324.316 179.113 322.999 179.054L322.776 184.354C323.851 183.507 324.644 182.356 325.052 181.05Z" fill="#5C5C5C"/>
<path d="M319.598 263.61L319.356 269.975C320.722 269.103 322.621 267.562 323.125 265.567C323.628 263.571 321.391 263.464 319.598 263.61Z" fill="#5C5C5C"/>
<path d="M326.137 121.712L325.818 128.068C327.184 127.186 329.053 125.665 329.547 123.679C330.041 121.693 327.92 121.557 326.137 121.712Z" fill="#5C5C5C"/>
<path d="M324.326 199.244C324.424 198.928 324.424 198.59 324.326 198.275C325.709 196.949 326.713 195.276 327.232 193.431C327.968 190.525 325.295 189.818 322.563 189.856L322.03 202.547C323.11 201.702 323.91 200.551 324.326 199.244Z" fill="#5C5C5C"/>
<path d="M330.526 106.299L330.361 100.486C329.691 100.556 329.071 100.874 328.623 101.378C328.175 101.882 327.931 102.535 327.939 103.209C327.939 104.749 329.15 105.708 330.526 106.299Z" fill="#5C5C5C"/>
<path d="M323.347 149.652C323.917 149.09 324.385 148.435 324.733 147.714L324.655 149.148C326.021 148.315 328.211 146.697 328.743 144.537C329.276 142.376 326.893 142.396 325.072 142.599L324.956 144.973L324.878 144.847V145.515C324.336 144.876 323.096 144.789 321.972 144.866L323.347 149.652Z" fill="#5C5C5C"/>
<path d="M326.661 135.227C326.661 137.164 328.443 138.133 330.129 138.676L330.293 136.622L330.419 132.35C328.869 132.398 326.661 132.873 326.661 135.227Z" fill="#5C5C5C"/>
<path d="M318.058 304.88C318.843 304.492 322.408 302.593 323.125 299.735C323.745 297.236 320.015 297.643 318.281 297.953L318.058 304.88Z" fill="#5C5C5C"/>
<path d="M324.733 253.912C324.746 254.415 324.885 254.906 325.137 255.341C325.389 255.776 325.746 256.141 326.176 256.402L326.351 251.442C325.854 251.63 325.43 251.97 325.14 252.414C324.849 252.858 324.707 253.382 324.733 253.912Z" fill="#5C5C5C"/>
<path d="M327.949 205.938C326.816 205.832 323.047 205.706 323.047 208.786C323.047 210.404 324.326 211.373 325.75 211.954C325.327 212.442 325.105 213.072 325.13 213.717C325.13 215.229 326.254 216.178 327.571 216.769L327.949 205.938Z" fill="#5C5C5C"/>
<path d="M326.341 184.373C326.384 185.034 326.621 185.668 327.023 186.195C327.424 186.723 327.972 187.12 328.598 187.338L328.801 181.641C328.123 181.704 327.494 182.02 327.038 182.527C326.582 183.033 326.333 183.692 326.341 184.373Z" fill="#5C5C5C"/>
<path d="M328.966 153.169L329.131 151.057C326.69 151.531 324.287 152.849 324.287 156.23C324.287 159.359 326.854 161.2 329.625 162.285L329.925 151.435L328.966 153.169Z" fill="#5C5C5C"/>
<path d="M322.321 274.915C322.356 275.926 322.655 276.909 323.186 277.769C323.718 278.628 324.465 279.334 325.353 279.817L325.692 270.13C324.676 270.436 323.792 271.073 323.181 271.941C322.57 272.808 322.267 273.856 322.321 274.915Z" fill="#5C5C5C"/>
<path d="M324.132 314.81L324.326 309.346C322.805 308.377 319.996 308.551 317.913 308.842L317.467 320.622C320.105 319.221 322.385 317.232 324.132 314.81Z" fill="#5C5C5C"/>
<path d="M322.815 352.156C322.207 352.276 321.662 352.607 321.277 353.092C320.892 353.576 320.692 354.182 320.713 354.801C320.742 355.401 320.939 355.98 321.281 356.474C321.624 356.967 322.098 357.354 322.65 357.591L322.815 352.156Z" fill="#5C5C5C"/>
<path d="M321.11 327.472C321.11 328.993 322.253 329.942 323.58 330.533L323.783 324.72C322.456 324.933 321.11 325.631 321.11 327.472Z" fill="#5C5C5C"/>
<path d="M97.5158 171.76C97.5158 171.76 81.9676 176.071 73.6752 194.584C65.3829 213.097 78.7611 227.648 72.2996 246.084C65.8382 264.52 47.5194 273.801 63.891 288.207C80.2626 302.613 101.042 279.934 112.027 281.871C123.013 283.809 123.875 303.737 153.751 295.163C183.627 286.589 174.094 260.994 162.644 249.388C151.193 237.782 160.086 218.639 152.308 192.956C146.33 173.251 118.944 163.554 97.5158 171.76Z" fill="#33BB51"/>
<path opacity="0.5" d="M97.5158 171.76C97.5158 171.76 81.9676 176.071 73.6752 194.584C65.3829 213.097 78.7611 227.648 72.2996 246.084C65.8382 264.52 47.5194 273.801 63.891 288.207C80.2626 302.613 101.042 279.934 112.027 281.871C123.013 283.809 123.875 303.737 153.751 295.163C183.627 286.589 174.094 260.994 162.644 249.388C151.193 237.782 160.086 218.639 152.308 192.956C146.33 173.251 118.944 163.554 97.5158 171.76Z" fill="white"/>
<path d="M109.673 407.842L114.75 261.168L79.788 236.678L115.137 256.315L115.418 235.118L107.62 222.756L116.445 230.836L118.847 202.896L120.698 245.174L145.517 231.378L121.017 252.42L120.349 278.48L140.586 270.934L120.01 284.545L116.92 407.522L109.673 407.842Z" fill="#263238"/>
<path d="M117.268 275.874C118.234 276.395 119.349 276.566 120.426 276.359L120.543 271.932C119.206 272.639 115.331 274.906 117.268 275.874Z" fill="#808080"/>
<path d="M111.63 351.275L111.504 354.917V355.702C112.751 354.984 113.911 354.125 114.963 353.144C116.028 352.05 113.703 351.527 111.63 351.275Z" fill="#808080"/>
<path d="M112.996 311.661L112.861 315.749C113.936 315.099 114.94 314.336 115.854 313.473C116.871 312.456 114.934 311.903 112.996 311.661Z" fill="#808080"/>
<path d="M112.318 331.531C113.595 330.804 114.782 329.929 115.854 328.925C116.968 327.811 114.556 327.288 112.473 327.045L112.405 328.915L112.318 331.531Z" fill="#808080"/>
<path d="M115.273 246.026V247.964C116.233 247.367 117.129 246.673 117.946 245.891C118.915 244.922 117.181 244.389 115.321 244.108L115.273 246.026Z" fill="#808080"/>
<path d="M114.498 268.502C116.501 267.353 118.364 265.975 120.049 264.394C121.812 262.641 118.043 261.808 114.74 261.42L114.498 268.502Z" fill="#808080"/>
<path d="M117.007 321.775C117.644 322.105 118.344 322.297 119.061 322.337L119.157 318.462C117.559 319.47 115.486 321.02 117.007 321.775Z" fill="#808080"/>
<path d="M116.212 307.001C117.225 307.517 118.304 307.892 119.419 308.115L119.613 300.365C116.3 302.603 113.18 305.49 116.212 307.001Z" fill="#808080"/>
<path d="M115.592 338.458C116.532 338.951 117.573 339.22 118.634 339.242L118.77 333.817C116.561 335.154 113.452 337.382 115.592 338.458Z" fill="#808080"/>
<path d="M118.334 351.139L118.441 346.799C116.968 347.613 113.597 349.705 115.389 350.606C116.29 351.09 117.321 351.277 118.334 351.139Z" fill="#808080"/>
<path d="M113.665 292.528L113.519 296.81C114.694 296.124 115.787 295.304 116.774 294.369C117.84 293.264 115.68 292.731 113.665 292.528Z" fill="#808080"/>
<path d="M203.67 396.052C203.494 395.195 203.146 394.383 202.646 393.665C202.147 392.947 201.506 392.338 200.764 391.876C197.857 390.307 197.857 391.876 194.496 390.83C192.248 390.142 192.694 385.017 192.51 383.332C191.948 378.032 189.013 373.45 183.598 372.074C180.898 371.345 178.057 371.319 175.344 371.997C172.631 372.675 170.137 374.036 168.098 375.949C161.569 382.217 162.353 387.701 158.178 387.953C154.003 388.205 151.649 382.992 144.335 386.131C139.85 388.069 137.554 392.729 136.401 396.052H203.67Z" fill="#33BB51"/>
<path opacity="0.5" d="M203.67 396.052C203.494 395.195 203.146 394.383 202.646 393.665C202.147 392.947 201.506 392.338 200.764 391.876C197.857 390.307 197.857 391.876 194.496 390.83C192.248 390.142 192.694 385.017 192.51 383.332C191.948 378.032 189.013 373.45 183.598 372.074C180.898 371.345 178.057 371.319 175.344 371.997C172.631 372.675 170.137 374.036 168.098 375.949C161.569 382.217 162.353 387.701 158.178 387.953C154.003 388.205 151.649 382.992 144.335 386.131C139.85 388.069 137.554 392.729 136.401 396.052H203.67Z" fill="white"/>
<path d="M151.319 395.955L148.142 393.068" stroke="#263238" stroke-linecap="round" stroke-linejoin="round"/>
<path d="M170.684 396.1L179.219 378.759" stroke="#263238" stroke-linecap="round" stroke-linejoin="round"/>
<path d="M174.879 380.057L175.887 385.695L182.687 381.937" stroke="#263238" stroke-linecap="round" stroke-linejoin="round"/>
<path d="M169.386 385.841L172.854 392.196L179.645 390.026" stroke="#263238" stroke-linecap="round" stroke-linejoin="round"/>
<path d="M149.237 408.404C148.51 405.555 146.795 401.322 142.795 399.142C136.42 395.664 136.42 399.142 128.893 396.827C123.904 395.286 124.892 384.048 124.485 380.202C123.236 368.432 116.736 358.259 104.704 355.227C92.5365 352.146 79.5167 355.033 70.3912 363.811C55.9183 377.713 57.6523 389.871 48.3815 390.452C39.1107 391.033 33.9571 379.447 17.7114 386.393C7.80121 390.665 2.61848 401.031 0.119141 408.404H149.237Z" fill="#33BB51"/>
<path d="M33.1433 408.191L26.0909 401.787" stroke="#263238" stroke-linecap="round" stroke-linejoin="round"/>
<path d="M76.097 408.52L95.0165 370.04" stroke="#263238" stroke-linecap="round" stroke-linejoin="round"/>
<path d="M125.474 407.551L131.557 403.705" stroke="#263238" stroke-linecap="round" stroke-linejoin="round"/>
<path d="M85.3969 372.927L87.6444 385.434L102.708 377.093" stroke="#263238" stroke-linecap="round" stroke-linejoin="round"/>
<path d="M73.2102 385.754L80.9117 399.859L95.9755 395.054" stroke="#263238" stroke-linecap="round" stroke-linejoin="round"/>
<path d="M32.8237 400.179L31.5352 407.231L24.4828 405.953" stroke="#263238" stroke-linecap="round" stroke-linejoin="round"/>
<path d="M127.392 405.953L126.433 402.426" stroke="#263238" stroke-linecap="round" stroke-linejoin="round"/>
<path d="M85.3485 373.518C85.921 373.518 86.385 373.054 86.385 372.481C86.385 371.909 85.921 371.445 85.3485 371.445C84.776 371.445 84.312 371.909 84.312 372.481C84.312 373.054 84.776 373.518 85.3485 373.518Z" fill="#263238"/>
<path d="M96.0434 370.03C96.0568 370.237 96.0082 370.443 95.9037 370.621C95.7992 370.8 95.6436 370.943 95.4569 371.033C95.2703 371.122 95.0611 371.154 94.8564 371.123C94.6517 371.093 94.4608 371.002 94.3083 370.862C94.1558 370.722 94.0486 370.539 94.0007 370.338C93.9527 370.137 93.9661 369.925 94.0392 369.732C94.1123 369.538 94.2416 369.371 94.4106 369.251C94.5796 369.132 94.7805 369.066 94.9874 369.061C95.255 369.053 95.5151 369.15 95.7123 369.331C95.9095 369.512 96.0283 369.763 96.0434 370.03Z" fill="#263238"/>
<path d="M103.638 377.684C104.211 377.684 104.675 377.219 104.675 376.647C104.675 376.074 104.211 375.61 103.638 375.61C103.066 375.61 102.602 376.074 102.602 376.647C102.602 377.219 103.066 377.684 103.638 377.684Z" fill="#263238"/>
<path d="M97.574 394.87C97.5759 395.076 97.5165 395.277 97.4033 395.449C97.2902 395.621 97.1284 395.756 96.9386 395.835C96.7488 395.915 96.5396 395.936 96.3376 395.897C96.1356 395.857 95.9501 395.758 95.8045 395.612C95.659 395.467 95.5601 395.281 95.5204 395.079C95.4807 394.877 95.502 394.668 95.5817 394.478C95.6613 394.288 95.7957 394.127 95.9676 394.013C96.1396 393.9 96.3413 393.841 96.5471 393.843C96.8187 393.845 97.0784 393.954 97.2704 394.146C97.4624 394.338 97.5714 394.598 97.574 394.87Z" fill="#263238"/>
<path d="M73.1134 386.606C73.6859 386.606 74.1499 386.142 74.1499 385.569C74.1499 384.997 73.6859 384.533 73.1134 384.533C72.5409 384.533 72.0768 384.997 72.0768 385.569C72.0768 386.142 72.5409 386.606 73.1134 386.606Z" fill="#263238"/>
<path d="M126.433 403.463C127.005 403.463 127.469 402.999 127.469 402.426C127.469 401.854 127.005 401.39 126.433 401.39C125.86 401.39 125.396 401.854 125.396 402.426C125.396 402.999 125.86 403.463 126.433 403.463Z" fill="#263238"/>
<path d="M132.545 403.482C132.547 403.688 132.488 403.889 132.375 404.061C132.263 404.232 132.101 404.367 131.912 404.447C131.723 404.527 131.514 404.549 131.313 404.51C131.111 404.471 130.925 404.373 130.779 404.228C130.633 404.084 130.534 403.899 130.493 403.698C130.452 403.496 130.472 403.287 130.55 403.098C130.628 402.908 130.761 402.745 130.932 402.631C131.103 402.516 131.303 402.455 131.509 402.455C131.782 402.455 132.044 402.563 132.238 402.755C132.432 402.948 132.543 403.209 132.545 403.482Z" fill="#263238"/>
<path d="M32.8237 401.215C33.3961 401.215 33.8602 400.751 33.8602 400.179C33.8602 399.606 33.3961 399.142 32.8237 399.142C32.2512 399.142 31.7871 399.606 31.7871 400.179C31.7871 400.751 32.2512 401.215 32.8237 401.215Z" fill="#263238"/>
<path d="M26.7884 401.244C26.7884 401.449 26.7276 401.65 26.6137 401.82C26.4998 401.991 26.338 402.124 26.1485 402.202C25.9591 402.281 25.7507 402.301 25.5497 402.261C25.3486 402.221 25.1639 402.122 25.0189 401.977C24.874 401.832 24.7752 401.648 24.7352 401.447C24.6953 401.246 24.7158 401.037 24.7942 400.848C24.8727 400.658 25.0055 400.496 25.176 400.382C25.3465 400.269 25.5469 400.208 25.7519 400.208C26.0268 400.208 26.2904 400.317 26.4848 400.511C26.6792 400.706 26.7884 400.969 26.7884 401.244Z" fill="#263238"/>
<path d="M24.0275 406.931C24.6 406.931 25.0641 406.467 25.0641 405.894C25.0641 405.322 24.6 404.858 24.0275 404.858C23.455 404.858 22.991 405.322 22.991 405.894C22.991 406.467 23.455 406.931 24.0275 406.931Z" fill="#263238"/>
<path d="M238.893 367.434C238.893 367.434 193.363 370.079 197.974 372.714C202.585 375.349 239.552 378.652 233.614 385.308C227.675 391.963 154.41 409.721 154.41 409.721" stroke="#263238" stroke-linecap="round" stroke-linejoin="round"/>
<path d="M263.974 367.434C263.974 367.434 246.808 370.079 249.443 372.055C252.078 374.031 371.503 376.676 364.277 411" stroke="#263238" stroke-linecap="round" stroke-linejoin="round"/>
<path d="M344.456 289.476C344.456 289.476 328.753 291.133 306.453 269.655C284.152 248.177 327.93 172.166 345.28 155.649C362.63 139.131 398.202 244.864 384.93 264.695C371.658 284.526 357.67 288.653 344.456 289.476Z" fill="#33BB51"/>
<path d="M337.84 376.221L340.32 265.518L329.586 253.961L341.153 260.568V240.737L326.283 223.386L340.32 234.13L338.673 220.082L342.8 226.689L345.28 187.037L346.926 247.344L374.196 232.473L346.926 255.608V266.351V379.524" fill="#263238"/>
<path d="M343.894 328.373C344.592 326.629 340.145 326.435 338.964 326.367L338.847 331.657C340.397 331.037 343.313 329.797 343.894 328.373Z" fill="#808080"/>
<path d="M346.926 283.644C344.669 284.206 340.048 285.582 341.395 286.899C342.461 287.955 345.037 288.381 346.926 288.546V283.644Z" fill="#808080"/>
<path d="M344.224 298.554C344.931 296.79 339.632 296.79 339.632 296.79V296.878L339.525 301.528C340.775 301.082 343.672 299.929 344.224 298.554Z" fill="#808080"/>
<path d="M343.875 275.603C344.398 274.286 341.598 273.947 340.136 273.859L340.039 278.248C341.443 277.676 343.429 276.708 343.875 275.603Z" fill="#808080"/>
<path d="M338.673 352.457L338.324 354.908L338.256 357.95C339.467 357.543 343.226 356.148 343.894 354.462C344.698 352.457 338.673 352.457 338.673 352.457Z" fill="#808080"/>
<path d="M340.678 315.071C341.879 316.273 344.776 316.747 346.927 316.951V311.38C344.34 312.029 339.157 313.55 340.678 315.071Z" fill="#808080"/>
<path d="M341.046 263.949C342.17 265.073 345.018 265.479 346.926 265.625V260.606C344.844 261.101 339.622 262.496 341.046 263.949Z" fill="#808080"/>
<path d="M346.52 232.463C344.204 233.142 341.366 234.227 342.461 235.37C343.284 236.193 345.018 236.629 346.646 236.871L346.52 232.463Z" fill="#808080"/>
<path d="M346.926 337.508C344.34 338.157 339.177 339.678 340.678 341.199C341.879 342.401 344.776 342.885 346.926 343.079V337.508Z" fill="#808080"/>
<path d="M341.153 245.242V249.766C342.557 249.223 344.805 248.187 345.28 246.995C345.89 245.552 342.412 245.29 341.153 245.242Z" fill="#808080"/>
<path d="M398.202 377.432C398.919 370.892 393.6 363.869 386.867 363.53C380.823 363.239 374.177 367.298 369.14 363.946C365.022 361.205 364.935 355.353 364.47 350.383C364.005 345.413 362.649 340.492 359.433 336.82C356.217 333.149 350.811 331.008 346.2 332.693C336.91 336.113 336.338 351.352 326.825 354.162C320.257 356.099 313.408 350.645 306.666 351.856C298.412 353.328 294.683 362.464 288.347 366.93C287.688 367.395 284.937 369.391 281.779 371.697C279.134 373.634 276.209 375.775 274.029 377.432H398.202Z" fill="#33BB51"/>
<path opacity="0.5" d="M398.202 377.432C398.919 370.892 393.6 363.869 386.867 363.53C380.823 363.239 374.177 367.298 369.14 363.946C365.022 361.205 364.935 355.353 364.47 350.383C364.005 345.413 362.649 340.492 359.433 336.82C356.217 333.149 350.811 331.008 346.2 332.693C336.91 336.113 336.338 351.352 326.825 354.162C320.257 356.099 313.408 350.645 306.666 351.856C298.412 353.328 294.683 362.464 288.347 366.93C287.688 367.395 284.937 369.391 281.779 371.697C279.134 373.634 276.209 375.775 274.029 377.432H398.202Z" fill="white"/>
<path d="M321.158 376.889L315.946 361.66" stroke="#263238" stroke-linecap="round" stroke-linejoin="round"/>
<path d="M339.593 377.296L350.414 348.039" stroke="#263238" stroke-linecap="round" stroke-linejoin="round"/>
<path d="M378.866 377.296L385.279 371.28" stroke="#263238" stroke-linecap="round" stroke-linejoin="round"/>
<path d="M319.724 373.285L323.163 364.072" stroke="#263238" stroke-linecap="round" stroke-linejoin="round"/>
<path d="M319.056 371.038L307.131 368.073" stroke="#263238" stroke-linecap="round" stroke-linejoin="round"/>
<path d="M347.207 356.855L344.001 351.643" stroke="#263238" stroke-linecap="round" stroke-linejoin="round"/>
<path d="M344.001 364.867L355.616 358.463" stroke="#263238" stroke-linecap="round" stroke-linejoin="round"/>
<path d="M340.533 375.039L351.208 371.28" stroke="#263238" stroke-linecap="round" stroke-linejoin="round"/>
<path d="M341.996 370.883L335.185 358.86" stroke="#263238" stroke-linecap="round" stroke-linejoin="round"/>
<path d="M351.441 348.039C351.441 348.244 351.38 348.445 351.265 348.616C351.151 348.786 350.989 348.919 350.799 348.997C350.609 349.076 350.4 349.096 350.198 349.055C349.997 349.014 349.812 348.914 349.668 348.768C349.523 348.622 349.425 348.437 349.386 348.235C349.348 348.033 349.369 347.825 349.449 347.635C349.529 347.446 349.664 347.285 349.835 347.172C350.007 347.059 350.209 347 350.414 347.002C350.55 347.002 350.684 347.029 350.809 347.081C350.934 347.134 351.048 347.21 351.143 347.306C351.239 347.403 351.314 347.517 351.365 347.643C351.416 347.769 351.442 347.903 351.441 348.039Z" fill="#263238"/>
<path d="M344.921 351.556C344.921 351.761 344.86 351.961 344.746 352.131C344.633 352.302 344.471 352.435 344.281 352.513C344.092 352.592 343.883 352.612 343.682 352.572C343.481 352.532 343.297 352.434 343.152 352.289C343.007 352.144 342.908 351.959 342.868 351.758C342.828 351.557 342.849 351.348 342.927 351.159C343.005 350.969 343.138 350.808 343.309 350.694C343.479 350.58 343.68 350.519 343.885 350.519C344.021 350.518 344.156 350.544 344.283 350.595C344.409 350.647 344.524 350.723 344.62 350.82C344.717 350.916 344.793 351.031 344.845 351.157C344.897 351.284 344.922 351.419 344.921 351.556Z" fill="#263238"/>
<path d="M355.616 359.5C356.188 359.5 356.653 359.035 356.653 358.463C356.653 357.89 356.188 357.426 355.616 357.426C355.044 357.426 354.579 357.89 354.579 358.463C354.579 359.035 355.044 359.5 355.616 359.5Z" fill="#263238"/>
<path d="M335.185 359.897C335.758 359.897 336.222 359.433 336.222 358.86C336.222 358.288 335.758 357.824 335.185 357.824C334.613 357.824 334.149 358.288 334.149 358.86C334.149 359.433 334.613 359.897 335.185 359.897Z" fill="#263238"/>
<path d="M351.751 372.162C352.323 372.162 352.787 371.697 352.787 371.125C352.787 370.552 352.323 370.088 351.751 370.088C351.178 370.088 350.714 370.552 350.714 371.125C350.714 371.697 351.178 372.162 351.751 372.162Z" fill="#263238"/>
<path d="M384.872 372.568C385.444 372.568 385.908 372.104 385.908 371.532C385.908 370.959 385.444 370.495 384.872 370.495C384.299 370.495 383.835 370.959 383.835 371.532C383.835 372.104 384.299 372.568 384.872 372.568Z" fill="#263238"/>
<path d="M316.983 361.66C316.985 361.865 316.926 362.067 316.813 362.238C316.7 362.41 316.539 362.545 316.35 362.625C316.161 362.704 315.952 362.726 315.75 362.688C315.548 362.649 315.363 362.551 315.217 362.406C315.071 362.262 314.971 362.077 314.93 361.875C314.89 361.674 314.91 361.465 314.988 361.275C315.066 361.085 315.199 360.923 315.369 360.808C315.54 360.694 315.741 360.633 315.946 360.633C316.22 360.633 316.482 360.741 316.676 360.933C316.87 361.126 316.98 361.387 316.983 361.66Z" fill="#263238"/>
<path d="M322.979 365.138C323.552 365.138 324.016 364.674 324.016 364.101C324.016 363.529 323.552 363.065 322.979 363.065C322.407 363.065 321.943 363.529 321.943 364.101C321.943 364.674 322.407 365.138 322.979 365.138Z" fill="#263238"/>
<path d="M307.131 369.11C307.703 369.11 308.167 368.646 308.167 368.073C308.167 367.501 307.703 367.037 307.131 367.037C306.558 367.037 306.094 367.501 306.094 368.073C306.094 368.646 306.558 369.11 307.131 369.11Z" fill="#263238"/>
<path d="M428 391.867C427.788 390.821 427.365 389.831 426.757 388.954C426.149 388.078 425.369 387.335 424.464 386.771C420.957 384.833 420.957 386.771 416.821 385.502C414.079 384.659 414.622 378.478 414.399 376.356C413.711 369.895 410.127 364.305 403.52 362.629C400.232 361.742 396.771 361.71 393.467 362.536C390.163 363.361 387.124 365.017 384.639 367.347C376.676 374.99 377.635 381.675 372.54 381.995C367.444 382.314 364.577 375.949 355.665 379.766C350.191 382.111 347.362 387.807 345.977 391.867H428Z" fill="#33BB51"/>
<path d="M364.16 391.75L360.285 388.224" stroke="#263238" stroke-linecap="round" stroke-linejoin="round"/>
<path d="M387.778 391.925L398.182 370.776" stroke="#263238" stroke-linecap="round" stroke-linejoin="round"/>
<path d="M392.893 372.365L394.123 379.234L402.406 374.651" stroke="#263238" stroke-linecap="round" stroke-linejoin="round"/>
<path d="M386.199 379.418L390.423 387.168L398.705 384.523" stroke="#263238" stroke-linecap="round" stroke-linejoin="round"/>
</svg>
