<svg width="284" height="74" viewBox="0 0 284 74" fill="none" xmlns="http://www.w3.org/2000/svg">
<g clip-path="url(#clip0_15_483)">
<path fill-rule="evenodd" clip-rule="evenodd" d="M213.419 0C207.558 0 202.001 1.25157 197.025 3.49095C211.771 4.66126 224.099 13.7879 229.105 26.2654C231.522 25.575 234.09 25.1975 236.75 25.1975C251.131 25.1975 262.795 36.1251 262.795 49.5988C262.795 63.0722 251.131 74 236.75 74H257.415C272.147 74 284.095 62.5519 284.095 48.4367C284.095 34.3215 272.147 22.8736 257.415 22.8736C254.69 22.8736 252.06 23.2691 249.583 23.9924C244.086 9.97893 229.968 0 213.419 0Z" fill="#6DCE8B"/>
<path d="M15.3557 61.0305C12.52 61.0305 10.0727 60.5007 8.01364 59.4418C5.96632 58.3715 4.38969 56.8498 3.28365 54.8764C2.1894 52.8922 1.64227 50.5343 1.64227 47.8026C1.64227 45.1494 2.19529 42.8305 3.3013 40.8463C4.40733 38.8507 5.96632 37.301 7.97835 36.1974C9.99035 35.0824 12.3612 34.525 15.091 34.525C17.0206 34.525 18.7855 34.8093 20.3858 35.378C21.9858 35.9465 23.3686 36.7881 24.5333 37.9031C25.6981 39.0178 26.604 40.3946 27.2512 42.0333C27.8984 43.6613 28.2218 45.5285 28.2218 47.6355V49.6759H4.66031V44.9264H20.1917C20.1799 44.0569 19.962 43.2823 19.5385 42.6021C19.1149 41.922 18.5325 41.3926 17.7913 41.0135C17.0618 40.6233 16.2205 40.4282 15.2674 40.4282C14.3026 40.4282 13.4378 40.6344 12.673 41.0468C11.9082 41.4481 11.3022 42 10.8551 42.7024C10.408 43.3936 10.1727 44.1797 10.1492 45.0603V49.8931C10.1492 50.9409 10.3669 51.8609 10.8022 52.6523C11.2375 53.4327 11.8553 54.0405 12.6554 54.4751C13.4555 54.91 14.4085 55.1273 15.5145 55.1273C16.2793 55.1273 16.9735 55.0271 17.5971 54.8263C18.2207 54.6258 18.7561 54.3301 19.2032 53.9399C19.6503 53.5498 19.9858 53.0704 20.2091 52.502L28.1337 52.7193C27.8043 54.4028 27.0804 55.8686 25.9629 57.1172C24.8567 58.3547 23.4037 59.3191 21.6035 60.0103C19.8033 60.6904 17.7206 61.0305 15.3557 61.0305ZM45.2841 61.0305C42.425 61.0305 39.9719 60.4731 37.9246 59.3581C35.889 58.2434 34.3242 56.6937 33.2297 54.7092C32.1356 52.7136 31.5886 50.4061 31.5886 47.7862C31.5886 45.1551 32.1356 42.8473 33.2297 40.8628C34.3359 38.8675 35.9068 37.3121 37.942 36.1974C39.9893 35.0824 42.431 34.525 45.2667 34.525C47.7727 34.525 49.9552 34.9542 51.8144 35.8126C53.6852 36.671 55.1443 37.8863 56.1915 39.4581C57.2505 41.0189 57.8092 42.8531 57.8682 44.96H49.8026C49.6378 43.6445 49.1671 42.6132 48.3904 41.8662C47.6257 41.1194 46.6257 40.7457 45.3903 40.7457C44.3899 40.7457 43.5134 41.0135 42.7604 41.5486C42.0075 42.0724 41.4189 42.8531 40.9954 43.8897C40.5836 44.9153 40.3777 46.1864 40.3777 47.7024C40.3777 49.2187 40.5836 50.5006 40.9954 51.5487C41.4189 52.5854 42.0075 53.3715 42.7604 53.9066C43.5134 54.4307 44.3899 54.6924 45.3903 54.6924C46.1901 54.6924 46.8962 54.5309 47.5078 54.2077C48.1316 53.8841 48.6435 53.4105 49.0436 52.7862C49.4437 52.1508 49.6964 51.3816 49.8026 50.4784H57.8682C57.7858 52.5965 57.2267 54.4472 56.1915 56.0304C55.1677 57.6134 53.7264 58.8455 51.8672 59.7261C50.0202 60.5956 47.8256 61.0305 45.2841 61.0305ZM74.939 61.0305C72.0919 61.0305 69.6446 60.4785 67.5973 59.3749C65.5617 58.2599 63.9909 56.7102 62.8847 54.726C61.7906 52.7304 61.2435 50.4172 61.2435 47.7862C61.2435 45.144 61.7906 42.8305 62.8847 40.8463C63.9909 38.8507 65.5617 37.301 67.5973 36.1974C69.6446 35.0824 72.0919 34.525 74.939 34.525C77.7865 34.525 80.2282 35.0824 82.2638 36.1974C84.3111 37.301 85.8816 38.8507 86.976 40.8463C88.0819 42.8305 88.6349 45.144 88.6349 47.7862C88.6349 50.4172 88.0819 52.7304 86.976 54.726C85.8816 56.7102 84.3111 58.2599 82.2638 59.3749C80.2282 60.4785 77.7865 61.0305 74.939 61.0305ZM74.9923 54.8599C76.0275 54.8599 76.904 54.5588 77.6218 53.9568C78.3396 53.3547 78.8867 52.5185 79.2633 51.4485C79.6517 50.3782 79.8455 49.1407 79.8455 47.736C79.8455 46.3089 79.6517 45.0603 79.2633 43.99C78.8867 42.9197 78.3396 42.0838 77.6218 41.4817C76.904 40.8796 76.0275 40.5786 74.9923 40.5786C73.9213 40.5786 73.0153 40.8796 72.2741 41.4817C71.5445 42.0838 70.9858 42.9197 70.5974 43.99C70.2211 45.0603 70.0326 46.3089 70.0326 47.736C70.0326 49.1407 70.2211 50.3782 70.5974 51.4485C70.9858 52.5185 71.5445 53.3547 72.2741 53.9568C73.0153 54.5588 73.9213 54.8599 74.9923 54.8599ZM110.405 43.5386V49.843H93.6738V43.5386H110.405ZM116.499 60.5454V34.8594H124.882V39.5419H125.164C125.659 37.8473 126.464 36.5876 127.582 35.7625C128.7 34.9263 130 34.5082 131.483 34.5082C131.883 34.5082 132.295 34.5361 132.718 34.592C133.142 34.6364 133.536 34.709 133.901 34.8093V41.9163C133.489 41.7827 132.947 41.6768 132.277 41.5988C131.618 41.5207 131.03 41.4817 130.512 41.4817C129.488 41.4817 128.565 41.699 127.741 42.1339C126.929 42.5574 126.288 43.1538 125.817 43.923C125.358 44.6812 125.129 45.5732 125.129 46.5988V60.5454H116.499ZM148.664 61.0305C145.817 61.0305 143.369 60.4785 141.322 59.3749C139.286 58.2599 137.716 56.7102 136.61 54.726C135.516 52.7304 134.968 50.4172 134.968 47.7862C134.968 45.144 135.516 42.8305 136.61 40.8463C137.716 38.8507 139.286 37.301 141.322 36.1974C143.369 35.0824 145.817 34.525 148.664 34.525C151.511 34.525 153.953 35.0824 155.988 36.1974C158.036 37.301 159.607 38.8507 160.701 40.8463C161.807 42.8305 162.36 45.144 162.36 47.7862C162.36 50.4172 161.807 52.7304 160.701 54.726C159.607 56.7102 158.036 58.2599 155.988 59.3749C153.953 60.4785 151.511 61.0305 148.664 61.0305ZM148.717 54.8599C149.752 54.8599 150.629 54.5588 151.347 53.9568C152.065 53.3547 152.612 52.5185 152.988 51.4485C153.376 50.3782 153.57 49.1407 153.57 47.736C153.57 46.3089 153.376 45.0603 152.988 43.99C152.612 42.9197 152.065 42.0838 151.347 41.4817C150.629 40.8796 149.752 40.5786 148.717 40.5786C147.646 40.5786 146.74 40.8796 145.999 41.4817C145.27 42.0838 144.711 42.9197 144.322 43.99C143.946 45.0603 143.758 46.3089 143.758 47.736C143.758 49.1407 143.946 50.3782 144.322 51.4485C144.711 52.5185 145.27 53.3547 145.999 53.9568C146.74 54.5588 147.646 54.8599 148.717 54.8599ZM184.271 49.4582V34.8594H192.884V60.5454H184.66V55.7627H184.377C183.777 57.3349 182.753 58.5834 181.306 59.5088C179.871 60.4227 178.135 60.8798 176.1 60.8798C174.252 60.8798 172.629 60.4785 171.229 59.6759C169.828 58.873 168.74 57.7526 167.964 56.3147C167.187 54.8653 166.793 53.1707 166.781 51.2309V34.8594H175.412V49.6257C175.423 51.0193 175.812 52.1172 176.576 52.9201C177.341 53.7226 178.382 54.1239 179.7 54.1239C180.559 54.1239 181.33 53.9457 182.012 53.5888C182.706 53.2208 183.253 52.6914 183.654 52.0001C184.065 51.2978 184.271 50.4505 184.271 49.4582ZM213.679 34.8594V40.8796H196.577V34.8594H213.679ZM200.16 28.7056H208.79V52.4683C208.79 52.9702 208.873 53.3769 209.037 53.689C209.214 53.9901 209.467 54.2077 209.796 54.3412C210.126 54.464 210.52 54.5252 210.979 54.5252C211.308 54.5252 211.655 54.4973 212.02 54.4418C212.396 54.3749 212.679 54.319 212.867 54.2746L214.173 60.1775C213.761 60.2891 213.179 60.4284 212.426 60.5956C211.685 60.7627 210.796 60.8687 209.761 60.9134C207.737 61.0026 206.002 60.7796 204.555 60.2444C203.119 59.6981 202.019 58.8508 201.254 57.7025C200.501 56.5542 200.137 55.1105 200.16 53.3715V28.7056ZM230.463 61.0305C227.628 61.0305 225.18 60.5007 223.121 59.4418C221.074 58.3715 219.498 56.8498 218.391 54.8764C217.297 52.8922 216.75 50.5343 216.75 47.8026C216.75 45.1494 217.303 42.8305 218.409 40.8463C219.515 38.8507 221.074 37.301 223.086 36.1974C225.098 35.0824 227.469 34.525 230.199 34.525C232.128 34.525 233.893 34.8093 235.493 35.378C237.094 35.9465 238.476 36.7881 239.641 37.9031C240.806 39.0178 241.712 40.3946 242.359 42.0333C243.006 43.6613 243.33 45.5285 243.33 47.6355V49.6759H219.768V44.9264H235.299C235.288 44.0569 235.07 43.2823 234.646 42.6021C234.223 41.922 233.64 41.3926 232.899 41.0135C232.17 40.6233 231.328 40.4282 230.375 40.4282C229.411 40.4282 228.546 40.6344 227.781 41.0468C227.016 41.4481 226.41 42 225.963 42.7024C225.516 43.3936 225.28 44.1797 225.257 45.0603V49.8931C225.257 50.9409 225.475 51.8609 225.91 52.6523C226.345 53.4327 226.963 54.0405 227.763 54.4751C228.563 54.91 229.516 55.1273 230.622 55.1273C231.387 55.1273 232.081 55.0271 232.705 54.8263C233.329 54.6258 233.864 54.3301 234.311 53.9399C234.758 53.5498 235.093 53.0704 235.317 52.502L243.241 52.7193C242.912 54.4028 242.188 55.8686 241.071 57.1172C239.965 58.3547 238.511 59.3191 236.711 60.0103C234.911 60.6904 232.828 61.0305 230.463 61.0305Z" fill="#6DCE8B"/>
</g>
<defs>
<clipPath id="clip0_15_483">
<rect width="284" height="74" fill="white"/>
</clipPath>
</defs>
</svg>
