<svg width="129" height="43" viewBox="0 0 129 43" fill="none" xmlns="http://www.w3.org/2000/svg">
<path d="M123.311 42.7346H5.53243C2.94248 42.7346 0.821289 40.34 0.821289 37.4162V5.50589C0.821289 2.5821 2.94248 0.187496 5.53243 0.187496H123.311C125.901 0.187496 128.022 2.5821 128.022 5.50589V37.4162C128.022 40.34 125.901 42.7346 123.311 42.7346Z" fill="black"/>
<path d="M123.311 1.03977C125.492 1.03977 127.267 3.04347 127.267 5.50589V37.4162C127.267 39.8786 125.492 41.8823 123.311 41.8823H5.53243C3.35117 41.8823 1.57625 39.8786 1.57625 37.4162V5.50589C1.57625 3.04347 3.35117 1.03977 5.53243 1.03977H123.311ZM123.311 0.187496H5.53243C2.94248 0.187496 0.821289 2.5821 0.821289 5.50589V37.4162C0.821289 40.34 2.94248 42.7346 5.53243 42.7346H123.311C125.901 42.7346 128.022 40.34 128.022 37.4162V5.50589C128.022 2.5821 125.901 0.187496 123.311 0.187496Z" fill="#A6A6A6"/>
<path d="M45.4994 11.0836C45.4994 11.9718 45.2638 12.6832 44.7998 13.2137C44.2663 13.8426 43.5714 14.159 42.7198 14.159C41.906 14.159 41.2111 13.8372 40.641 13.203C40.0698 12.5595 39.7848 11.7697 39.7848 10.8244C39.7848 9.87903 40.0698 9.08925 40.641 8.45105C41.2111 7.81151 41.906 7.48975 42.7198 7.48975C43.125 7.48975 43.5113 7.58415 43.8799 7.75965C44.2474 7.93649 44.5466 8.17582 44.7633 8.47099L44.271 9.03208C43.8929 8.52816 43.3782 8.27953 42.7198 8.27953C42.1262 8.27953 41.6115 8.51354 41.1746 8.98554C40.7423 9.45888 40.5256 10.0718 40.5256 10.8244C40.5256 11.5769 40.7423 12.1952 41.1746 12.6685C41.6115 13.1352 42.1262 13.3745 42.7198 13.3745C43.3499 13.3745 43.8799 13.1352 44.2981 12.6632C44.5737 12.3508 44.7303 11.92 44.7715 11.3695H42.7198V10.601H45.457C45.49 10.7672 45.4994 10.9281 45.4994 11.0836V11.0836Z" fill="white" stroke="white" stroke-width="0.16" stroke-miterlimit="10"/>
<path d="M49.8419 8.41912H47.2708V10.4401H49.5887V11.2086H47.2708V13.2296H49.8419V14.0127H46.543V7.63599H49.8419V8.41912Z" fill="white" stroke="white" stroke-width="0.16" stroke-miterlimit="10"/>
<path d="M52.9065 14.0127H52.1786V8.41912H50.6016V7.63599H54.4847V8.41912H52.9065V14.0127V14.0127Z" fill="white" stroke="white" stroke-width="0.16" stroke-miterlimit="10"/>
<path d="M57.2949 14.0127V7.63599H58.0216V14.0127H57.2949Z" fill="white" stroke="white" stroke-width="0.16" stroke-miterlimit="10"/>
<path d="M61.2429 14.0127H60.5209V8.41912H58.938V7.63599H62.8258V8.41912H61.2429V14.0127Z" fill="white" stroke="white" stroke-width="0.16" stroke-miterlimit="10"/>
<path d="M70.1776 13.1924C69.6205 13.8372 68.9303 14.159 68.107 14.159C67.279 14.159 66.5889 13.8372 66.0318 13.1924C65.4759 12.5489 65.1991 11.7591 65.1991 10.8244C65.1991 9.88967 65.4759 9.09989 66.0318 8.45636C66.5889 7.81151 67.279 7.48975 68.107 7.48975C68.9256 7.48975 69.6158 7.81151 70.1729 8.46168C70.7335 9.11053 71.0103 9.89499 71.0103 10.8244C71.0103 11.7591 70.7335 12.5489 70.1776 13.1924ZM66.57 12.6579C66.9893 13.1352 67.4993 13.3745 68.107 13.3745C68.71 13.3745 69.2247 13.1352 69.6393 12.6579C70.0574 12.1806 70.2694 11.5676 70.2694 10.8244C70.2694 10.0811 70.0574 9.46819 69.6393 8.99086C69.2247 8.51354 68.71 8.27421 68.107 8.27421C67.4993 8.27421 66.9893 8.51354 66.57 8.99086C66.1519 9.46819 65.9399 10.0811 65.9399 10.8244C65.9399 11.5676 66.1519 12.1806 66.57 12.6579V12.6579Z" fill="white" stroke="white" stroke-width="0.16" stroke-miterlimit="10"/>
<path d="M72.0314 14.0127V7.63599H72.9147L75.6614 12.5954H75.6932L75.6614 11.3695V7.63599H76.3881V14.0127H75.6296L72.7534 8.80869H72.7216L72.7534 10.0399V14.0127H72.0314V14.0127Z" fill="white" stroke="white" stroke-width="0.16" stroke-miterlimit="10"/>
<path d="M65.0201 23.3252C62.807 23.3252 60.9991 25.2266 60.9991 27.8498C60.9991 30.4519 62.807 32.3731 65.0201 32.3731C67.2378 32.3731 69.0457 30.4519 69.0457 27.8498C69.0457 25.2266 67.2378 23.3252 65.0201 23.3252ZM65.0201 30.5915C63.8058 30.5915 62.7611 29.46 62.7611 27.8498C62.7611 26.2184 63.8058 25.1069 65.0201 25.1069C66.2344 25.1069 67.2838 26.2184 67.2838 27.8498C67.2838 29.46 66.2344 30.5915 65.0201 30.5915V30.5915ZM56.2467 23.3252C54.029 23.3252 52.2258 25.2266 52.2258 27.8498C52.2258 30.4519 54.029 32.3731 56.2467 32.3731C58.4633 32.3731 60.2677 30.4519 60.2677 27.8498C60.2677 25.2266 58.4633 23.3252 56.2467 23.3252ZM56.2467 30.5915C55.0312 30.5915 53.983 29.46 53.983 27.8498C53.983 26.2184 55.0312 25.1069 56.2467 25.1069C57.461 25.1069 58.5057 26.2184 58.5057 27.8498C58.5057 29.46 57.461 30.5915 56.2467 30.5915ZM45.8068 24.712V26.6346H49.8737C49.7548 27.7089 49.4368 28.4987 48.9492 29.0491C48.3556 29.7139 47.431 30.4519 45.8068 30.4519C43.304 30.4519 41.3442 28.1716 41.3442 25.3462C41.3442 22.5208 43.304 20.2406 45.8068 20.2406C47.1601 20.2406 48.1447 20.8376 48.8714 21.6114L50.0716 20.2565C49.0552 19.1609 47.7031 18.3193 45.8068 18.3193C42.3748 18.3193 39.4904 21.4718 39.4904 25.3462C39.4904 29.2207 42.3748 32.3731 45.8068 32.3731C47.6618 32.3731 49.0552 31.6871 50.1505 30.4C51.2729 29.1329 51.6227 27.3512 51.6227 25.9126C51.6227 25.4659 51.5898 25.055 51.5309 24.712H45.8068ZM88.4969 26.2025C88.1659 25.1907 87.1448 23.3252 85.0648 23.3252C83.0037 23.3252 81.2876 25.1587 81.2876 27.8498C81.2876 30.3841 82.986 32.3731 85.2627 32.3731C87.1036 32.3731 88.1659 31.106 88.6029 30.3681L87.2367 29.3403C86.7809 30.0929 86.1602 30.5915 85.2627 30.5915C84.3711 30.5915 83.7316 30.1301 83.3217 29.2207L88.6818 26.717L88.4969 26.2025V26.2025ZM83.032 27.7089C82.986 25.9645 84.2321 25.071 85.1249 25.071C85.8245 25.071 86.4181 25.4659 86.616 26.031L83.032 27.7089V27.7089ZM78.6753 32.0979H80.4373V18.8019H78.6753V32.0979ZM75.7897 24.3331H75.7308C75.3351 23.8039 74.5802 23.3252 73.6238 23.3252C71.6168 23.3252 69.7819 25.3143 69.7819 27.8645C69.7819 30.4 71.6168 32.3731 73.6238 32.3731C74.5802 32.3731 75.3351 31.8905 75.7308 31.3454H75.7897V31.9942C75.7897 33.724 74.9712 34.6534 73.6509 34.6534C72.5744 34.6534 71.9066 33.7759 71.631 33.0379L70.0987 33.7599C70.5403 34.9592 71.7099 36.4351 73.6509 36.4351C75.7167 36.4351 77.4598 35.0629 77.4598 31.7243V23.6005H75.7897V24.3331V24.3331ZM73.7746 30.5915C72.5603 30.5915 71.5438 29.444 71.5438 27.8645C71.5438 26.2703 72.5603 25.1069 73.7746 25.1069C74.9712 25.1069 75.9146 26.2703 75.9146 27.8645C75.9146 29.444 74.9712 30.5915 73.7746 30.5915V30.5915ZM96.7461 18.8019H92.532V32.0979H94.2892V27.0601H96.7461C98.6977 27.0601 100.612 25.4659 100.612 22.9303C100.612 20.3961 98.693 18.8019 96.7461 18.8019V18.8019ZM96.792 25.2106H94.2892V20.6514H96.792C98.1041 20.6514 98.8532 21.8813 98.8532 22.9303C98.8532 23.9594 98.1041 25.2106 96.792 25.2106ZM107.655 23.3C106.385 23.3 105.065 23.9329 104.522 25.3356L106.081 26.0735C106.417 25.3356 107.034 25.0963 107.687 25.0963C108.598 25.0963 109.523 25.7145 109.537 26.8061V26.9457C109.219 26.7383 108.538 26.4312 107.701 26.4312C106.021 26.4312 104.31 27.4749 104.31 29.4228C104.31 31.2044 105.686 32.3519 107.232 32.3519C108.414 32.3519 109.067 31.7496 109.477 31.0489H109.537V32.0766H111.234V26.9763C111.234 24.6189 109.675 23.3 107.655 23.3ZM107.443 30.5862C106.868 30.5862 106.067 30.2644 106.067 29.46C106.067 28.4309 107.066 28.036 107.93 28.036C108.704 28.036 109.067 28.2288 109.537 28.4827C109.399 29.7139 108.46 30.5862 107.443 30.5862V30.5862ZM117.417 23.5911L115.398 29.355H115.337L113.249 23.5911H111.354L114.492 31.6458L112.702 36.1279H114.538L119.373 23.5911H117.417V23.5911ZM101.577 32.0979H103.339V18.8019H101.577V32.0979Z" fill="white"/>
<path d="M10.6535 8.20633C10.3767 8.53341 10.2166 9.04265 10.2166 9.70213V33.2254C10.2166 33.8849 10.3767 34.3941 10.6535 34.7212L10.7218 34.793L22.3983 21.6167V21.3055L10.7218 8.12922L10.6535 8.20633Z" fill="url(#paint0_linear_7_2105)"/>
<path d="M26.2862 26.011L22.3983 21.6167V21.3055L26.2909 16.9112L26.3781 16.9684L30.9879 19.9294C32.3035 20.7697 32.3035 22.1525 30.9879 22.9981L26.3781 25.9538L26.2862 26.011V26.011Z" fill="url(#paint1_linear_7_2105)"/>
<path d="M26.3781 25.9539L22.3983 21.4612L10.6534 34.7213C11.0904 35.2398 11.803 35.3023 12.6133 34.7838L26.3781 25.9539" fill="url(#paint2_linear_7_2105)"/>
<path d="M26.3781 16.9682L12.6133 8.13837C11.803 7.62515 11.0904 7.68764 10.6534 8.20618L22.3983 21.4609L26.3781 16.9682Z" fill="url(#paint3_linear_7_2105)"/>
<defs>
<linearGradient id="paint0_linear_7_2105" x1="21.3616" y1="33.4703" x2="3.64093" y2="17.7731" gradientUnits="userSpaceOnUse">
<stop stop-color="#00A0FF"/>
<stop offset="0.0066" stop-color="#00A1FF"/>
<stop offset="0.2601" stop-color="#00BEFF"/>
<stop offset="0.5122" stop-color="#00D2FF"/>
<stop offset="0.7604" stop-color="#00DFFF"/>
<stop offset="1" stop-color="#00E3FF"/>
</linearGradient>
<linearGradient id="paint1_linear_7_2105" x1="32.701" y1="21.4596" x2="9.90199" y2="21.4596" gradientUnits="userSpaceOnUse">
<stop stop-color="#FFE000"/>
<stop offset="0.4087" stop-color="#FFBD00"/>
<stop offset="0.7754" stop-color="#FFA500"/>
<stop offset="1" stop-color="#FF9C00"/>
</linearGradient>
<linearGradient id="paint2_linear_7_2105" x1="24.214" y1="19.0189" x2="0.18332" y2="-2.26799" gradientUnits="userSpaceOnUse">
<stop stop-color="#FF3A44"/>
<stop offset="1" stop-color="#C31162"/>
</linearGradient>
<linearGradient id="paint3_linear_7_2105" x1="7.69701" y1="42.5471" x2="18.4278" y2="33.0416" gradientUnits="userSpaceOnUse">
<stop stop-color="#32A071"/>
<stop offset="0.0685" stop-color="#2DA771"/>
<stop offset="0.4762" stop-color="#15CF74"/>
<stop offset="0.8009" stop-color="#06E775"/>
<stop offset="1" stop-color="#00F076"/>
</linearGradient>
</defs>
</svg>
